<?xml version="1.0" standalone="no"?>
<!DOCTYPE svg PUBLIC "-//W3C//DTD SVG 20010904//EN"
 "http://www.w3.org/TR/2001/REC-SVG-20010904/DTD/svg10.dtd">
<svg version="1.0" xmlns="http://www.w3.org/2000/svg"
 width="512.000000pt" height="370.000000pt" viewBox="0 0 512.000000 370.000000"
 preserveAspectRatio="xMidYMid meet">

<g transform="translate(0.000000,370.000000) scale(0.100000,-0.100000)"
fill="#000000" stroke="none">
<path d="M1733 3684 c-25 -62 11 -160 68 -189 24 -13 33 -29 54 -99 33 -108
77 -303 73 -323 -2 -13 -9 -11 -35 11 -39 33 -150 84 -268 124 -84 28 -141 41
-320 72 -78 14 -162 49 -190 80 -26 29 -35 25 -35 -14 0 -48 16 -85 53 -125
l32 -34 -110 6 c-60 3 -123 10 -139 17 -37 14 -42 7 -19 -23 24 -33 71 -64
127 -86 l46 -17 -67 -47 c-73 -50 -171 -143 -161 -153 4 -3 23 -1 43 6 51 17
53 8 4 -24 -28 -19 -38 -31 -31 -38 6 -6 16 -6 28 0 19 9 174 27 174 20 0 -2
-32 -30 -70 -62 -61 -50 -76 -69 -116 -151 -40 -81 -46 -102 -48 -161 -2 -124
57 -207 318 -450 163 -151 238 -235 296 -334 l38 -65 -24 -28 c-40 -48 -33
-81 31 -140 l56 -51 -3 -65 c-2 -35 -7 -66 -13 -67 -5 -1 -48 44 -95 101 -97
118 -118 133 -151 106 l-23 -18 14 -159 c7 -87 10 -179 7 -204 -17 -123 -26
-338 -17 -390 14 -76 53 -151 101 -194 l40 -37 -35 -32 c-23 -22 -39 -49 -47
-80 -11 -45 -13 -47 -48 -47 -20 0 -132 -5 -249 -11 -247 -13 -405 -3 -572 36
-163 38 -235 33 -292 -22 -75 -72 -49 -173 57 -225 43 -21 145 -44 255 -58 52
-7 113 -18 135 -26 47 -16 66 -18 45 -4 -10 7 44 7 160 3 321 -14 2494 -9
2710 5 729 49 924 73 1140 142 162 52 275 115 366 205 103 102 119 175 55 248
-29 32 -30 32 -118 31 -80 -1 -104 -6 -273 -63 -102 -34 -237 -73 -301 -87
-162 -34 -599 -69 -599 -48 0 3 18 32 40 64 22 33 60 99 85 147 248 494 226
1108 -60 1688 -131 266 -280 470 -496 680 -191 186 -355 303 -594 425 -306
157 -586 235 -882 247 -134 6 -143 5 -150 -13z m257 -38 c132 -17 234 -37 337
-68 l73 -21 -30 -33 c-26 -30 -50 -88 -50 -121 0 -8 -17 -6 -57 8 -74 26 -281
75 -353 84 -30 4 -69 16 -86 26 -35 21 -64 73 -64 113 0 25 2 26 58 26 32 0
109 -6 172 -14z m517 -127 c58 -22 282 -125 292 -134 2 -3 -14 -21 -36 -40
-25 -21 -48 -54 -59 -80 l-17 -45 -66 36 c-36 20 -111 56 -166 80 -55 24 -101
48 -103 53 -12 36 51 151 84 151 7 0 39 -10 71 -21z m-546 -60 c655 -129 1188
-518 1463 -1067 64 -128 118 -265 142 -358 l17 -68 -99 -93 c-55 -51 -137
-126 -183 -165 l-84 -73 -161 -3 c-89 -1 -314 -5 -501 -8 l-340 -6 -33 31
c-29 29 -39 32 -85 30 -29 -2 -62 0 -73 4 -13 5 -40 1 -65 -8 -24 -8 -70 -15
-101 -15 -45 0 -58 -3 -58 -15 0 -24 -20 -17 -30 11 -22 57 -5 133 43 195 29
38 40 44 107 61 78 19 121 24 279 33 l94 5 -7 -40 c-5 -32 -3 -42 9 -46 9 -4
217 -1 463 5 384 10 452 15 482 29 46 23 57 56 42 129 -21 103 -176 388 -257
473 -18 19 -44 54 -59 77 -56 91 -338 347 -439 400 -40 20 -110 20 -142 -1
-14 -9 -33 -34 -43 -54 -9 -20 -17 -38 -18 -40 0 -1 -23 7 -49 19 -35 15 -77
23 -152 27 l-104 5 -24 42 c-14 23 -25 52 -25 64 0 58 -62 286 -115 424 -9 21
-18 21 106 -4z m1019 -184 c52 -35 124 -86 159 -114 52 -41 60 -52 45 -57 -64
-19 -110 -55 -136 -106 l-14 -26 -75 60 c-41 33 -113 85 -160 117 l-87 57 13
38 c16 46 50 84 90 101 35 15 34 16 165 -70z m-1766 5 c23 -11 110 -33 192
-50 148 -31 349 -99 431 -146 24 -14 61 -49 83 -78 37 -49 54 -84 29 -59 -17
17 -39 4 -39 -21 0 -27 35 -62 72 -71 37 -10 53 -63 33 -111 -12 -29 -19 -34
-47 -34 -45 0 -55 9 -63 53 -4 20 -10 37 -14 37 -3 0 -133 14 -289 31 -156 17
-285 29 -288 26 -3 -3 -1 -21 4 -40 6 -20 7 -38 4 -41 -3 -3 -73 -6 -155 -6
-170 0 -175 5 -63 63 l61 32 -110 5 -110 5 35 27 c19 15 32 29 30 32 -3 2 -25
1 -50 -4 -25 -5 -46 -7 -48 -5 -3 3 128 98 180 130 18 11 33 27 33 34 0 8 -28
23 -68 36 -103 33 -99 40 21 37 67 -2 113 1 122 8 12 9 12 13 2 17 -49 20
-102 91 -102 139 l0 26 35 -26 c20 -15 55 -36 79 -46z m2141 -312 c61 -62 140
-149 175 -193 l63 -80 -49 -6 c-68 -9 -96 -22 -144 -66 -36 -32 -43 -35 -51
-21 -26 47 -135 184 -208 260 -89 94 -91 100 -49 153 24 31 90 64 127 65 18 0
54 -30 136 -112z m-851 -38 c58 -28 166 -116 279 -228 175 -172 278 -314 384
-529 73 -147 89 -214 56 -231 -17 -9 -590 -32 -804 -32 l-79 0 0 29 c0 23 9
34 50 59 28 17 50 36 50 42 0 5 9 10 20 10 31 0 129 40 157 65 27 22 27 23 9
50 -25 38 -132 84 -212 92 l-64 6 0 52 c0 28 3 113 7 188 5 124 8 137 25 137
26 0 27 100 0 107 -16 4 -17 12 -12 71 12 123 49 154 134 112z m-224 -109 c24
-13 34 -24 32 -37 -2 -11 -6 -21 -8 -23 -8 -8 -230 22 -236 33 -4 6 -8 19 -8
28 0 32 157 32 220 -1z m-923 -143 c6 -7 27 -63 47 -125 l37 -111 101 -8 102
-7 -27 -23 c-35 -30 -47 -63 -47 -130 0 -30 -9 -83 -21 -117 -12 -34 -21 -77
-21 -95 0 -29 -3 -33 -21 -29 -12 3 -44 9 -72 12 -73 10 -114 24 -171 60 -56
36 -94 88 -94 129 0 30 13 32 54 11 37 -20 46 -11 15 14 -30 25 -84 37 -118
25 -19 -7 -27 -17 -29 -39 l-2 -30 16 23 c23 31 31 28 37 -18 14 -105 126
-175 336 -209 45 -7 72 -18 90 -35 38 -36 115 -67 182 -73 l59 -6 -26 -34
c-67 -88 -69 -179 -6 -306 48 -97 128 -190 234 -270 85 -64 206 -117 219 -95
5 7 9 18 9 24 0 15 60 69 98 88 18 9 79 28 135 42 56 14 117 35 134 47 19 13
48 52 70 92 48 89 69 93 65 12 l-4 -58 41 20 c23 12 59 21 86 21 42 0 46 -2
40 -20 -8 -26 2 -25 24 2 12 14 20 18 25 10 4 -7 -11 -31 -34 -55 -55 -60 -51
-82 5 -27 48 47 61 38 20 -16 -34 -45 -71 -65 -241 -135 -181 -74 -244 -107
-307 -160 -54 -47 -100 -118 -95 -150 2 -18 8 -14 35 27 17 27 41 58 52 69 21
18 22 18 35 -1 51 -69 58 -201 14 -295 -29 -65 -142 -189 -202 -224 -100 -58
-249 -93 -431 -102 -136 -7 -186 4 -313 64 -90 42 -140 86 -171 148 -26 53
-47 169 -38 207 l7 26 37 -19 c39 -20 73 -25 73 -11 0 5 -18 16 -40 26 -60 26
-73 66 -54 159 l6 29 26 -25 c39 -36 66 -47 109 -46 l38 0 -40 15 c-44 16 -99
64 -121 106 -8 16 -14 56 -14 95 l0 68 21 -35 c11 -19 31 -43 42 -52 24 -19
67 -24 67 -8 0 6 -9 10 -19 10 -20 0 -63 44 -99 102 -29 47 -44 198 -20 198 8
0 79 -76 157 -170 78 -93 155 -179 171 -190 37 -26 91 -36 119 -21 28 15 27
35 -1 28 -37 -8 -81 14 -147 74 l-61 56 15 36 c22 54 18 143 -10 241 -54 187
-129 290 -398 549 -263 253 -313 329 -289 445 16 76 63 165 93 173 13 4 108 7
210 8 138 1 189 -2 196 -11z m2260 -26 c19 -12 108 -153 169 -268 l57 -107
-34 6 c-53 8 -138 -11 -198 -44 -29 -17 -54 -29 -56 -27 -2 2 -22 45 -44 96
-22 52 -61 130 -87 175 l-47 81 41 36 c23 20 56 42 74 47 39 13 108 16 125 5z
m-1616 -92 c10 -41 17 -75 16 -76 -11 -6 -219 -36 -223 -31 -3 3 18 46 47 97
l54 91 45 -3 44 -3 17 -75z m28 -140 c8 -25 15 -30 41 -30 23 0 45 -12 78 -41
26 -23 65 -50 87 -62 l40 -20 -66 -13 c-95 -18 -204 -52 -279 -87 -95 -44 -51
-46 74 -3 148 51 227 67 331 67 97 1 156 -11 216 -41 55 -29 64 -44 35 -63
-59 -39 -145 -57 -314 -67 -171 -9 -248 -18 -407 -45 -49 -8 -128 -15 -175
-15 -133 0 -152 24 -110 145 12 36 20 84 20 127 0 38 5 78 11 90 17 32 68 47
215 63 76 8 140 17 142 20 3 3 15 5 28 5 16 0 25 -9 33 -30z m243 -37 c2 -24
-1 -55 -7 -71 -4 -10 -10 -10 -25 -2 -15 8 -18 17 -13 40 3 19 1 30 -6 30 -6
0 -11 -6 -11 -14 0 -27 -17 -25 -45 4 l-29 30 67 0 c57 0 67 -3 69 -17z m1592
-166 c18 -27 76 -187 104 -284 l20 -73 -26 8 c-55 15 -185 7 -246 -16 -33 -12
-60 -21 -62 -19 -1 1 -4 22 -8 47 -6 43 -4 49 28 85 19 22 35 34 36 28 0 -16
32 -17 48 -1 28 28 -4 145 -46 167 -30 16 -44 -6 -32 -49 9 -31 7 -37 -22 -67
-18 -18 -35 -30 -39 -26 -8 10 -51 154 -47 158 2 2 30 17 62 34 50 27 68 31
137 31 70 0 80 -2 93 -23z m-1513 -209 c-33 -15 -79 -22 -190 -29 -80 -5 -185
-19 -234 -30 -99 -24 -200 -23 -257 3 l-35 16 66 1 c37 1 120 10 185 21 134
22 297 37 424 38 l85 0 -44 -20z m1269 -251 c7 -54 11 -99 9 -101 -2 -2 -66
-6 -141 -8 l-137 -5 122 117 c74 72 125 113 129 106 3 -6 12 -55 18 -109z
m332 71 c24 -7 43 -20 48 -32 18 -50 40 -255 40 -381 l0 -137 -31 26 c-52 44
-98 59 -179 59 -57 1 -84 -4 -115 -20 l-40 -21 0 187 c0 102 -3 208 -7 234 -7
45 -6 48 20 59 92 38 193 48 264 26z m-1927 -177 c-15 -15 -65 -25 -65 -13 0
13 17 20 50 21 15 1 20 -3 15 -8z m119 -10 c3 -4 -20 -13 -51 -20 -79 -16 -95
-13 -48 10 42 20 90 25 99 10z m52 -45 c27 -20 9 -34 -46 -37 -47 -3 -98 17
-84 31 22 20 105 24 130 6z m749 -27 c0 -30 -3 -34 -27 -37 -33 -4 -32 -5 -13
42 19 45 40 42 40 -5z m693 -44 c5 -127 8 -123 -95 -118 -67 3 -105 11 -158
32 -38 16 -94 36 -122 46 -29 9 -53 20 -53 24 0 4 19 26 43 49 l42 41 120 4
c66 2 143 3 170 3 l50 -1 3 -80z m-1645 32 l68 -30 -37 -38 c-21 -21 -35 -42
-31 -45 4 -4 29 -9 56 -12 30 -3 52 -10 55 -19 7 -16 1 -19 -83 -33 l-64 -11
-35 33 c-19 18 -49 53 -67 78 l-33 44 30 38 c34 44 34 44 141 -5z m-490 -14
c19 -50 16 -63 -10 -47 -27 17 -36 39 -29 67 9 39 19 33 39 -20z m1616 12
c-57 -45 -92 -46 -113 -3 -9 17 -16 33 -16 35 0 1 39 3 86 3 l87 0 -44 -35z
m-454 -5 l-16 -30 -224 0 c-201 0 -265 7 -205 23 11 3 20 12 20 21 0 14 25 16
220 16 l221 0 -16 -30z m205 26 c0 -23 -17 -36 -46 -36 -19 0 -34 2 -34 4 0 2
-3 11 -6 20 -5 13 2 16 40 16 25 0 46 -2 46 -4z m-770 -91 c11 -13 8 -15 -15
-15 -23 0 -26 2 -15 15 7 8 14 15 15 15 1 0 8 -7 15 -15z m487 -32 c-20 -2
-52 -2 -70 0 -17 2 0 4 38 4 39 0 53 -2 32 -4z m586 -30 c-7 -2 -21 -2 -30 0
-10 3 -4 5 12 5 17 0 24 -2 18 -5z m-684 -13 c71 0 69 -13 -3 -26 -120 -20
-221 -72 -252 -129 -20 -37 -22 -38 -94 -8 -39 15 -130 75 -130 84 0 4 21 10
48 14 58 8 92 29 92 57 0 21 2 21 137 15 75 -4 166 -7 202 -7z m768 -35 c53
-5 89 -22 261 -122 l93 -54 -7 -37 c-36 -217 -157 -495 -295 -683 l-49 -66
-132 -6 c-73 -3 -134 -5 -135 -3 -1 1 28 38 64 82 89 106 164 222 223 346 102
215 118 316 57 362 -26 19 -48 21 -292 30 l-263 9 67 32 c44 21 81 48 107 78
l39 46 105 -5 c58 -2 128 -7 157 -9z m373 -40 c0 -27 -10 -26 -55 9 -19 15
-18 15 18 16 33 0 37 -3 37 -25z m273 -19 c46 -17 97 -51 118 -80 15 -19 14
-30 -2 -131 -17 -101 -77 -310 -99 -345 -7 -12 -13 -9 -32 15 -62 81 -142 125
-235 133 -35 2 -63 7 -62 11 0 3 15 61 32 128 l32 122 45 -34 c42 -32 45 -37
45 -82 0 -42 3 -48 22 -51 32 -5 66 89 67 188 1 69 -1 75 -20 78 -17 2 -23 -5
-33 -41 l-13 -44 -49 48 c-28 27 -47 53 -44 59 10 15 96 39 145 39 25 0 62 -6
83 -13z m-858 -137 c251 -11 285 -18 285 -58 0 -33 -60 -192 -110 -291 -68
-136 -159 -268 -248 -360 l-77 -79 -85 -3 -86 -3 -17 37 c-22 46 -62 76 -179
136 -52 27 -94 56 -96 65 -2 9 11 46 28 81 41 83 50 168 26 251 -10 32 -25 69
-33 82 -21 32 -12 41 108 103 110 58 97 57 484 39z m697 -339 c53 -27 82 -53
120 -107 l29 -43 -27 -47 c-15 -27 -49 -82 -76 -124 -47 -73 -51 -77 -94 -83
-44 -6 -48 -4 -95 38 -46 41 -119 76 -161 76 -10 0 -18 2 -18 4 0 2 17 35 39
73 34 60 86 172 105 227 6 16 14 18 71 14 38 -4 82 -15 107 -28z m-1173 -342
c129 -77 146 -124 73 -201 -26 -28 -27 -29 -8 -43 11 -8 27 -14 37 -14 25 0
84 -27 98 -44 11 -13 9 -17 -10 -25 -69 -25 -322 -41 -335 -20 -10 16 44 67
103 95 55 28 80 56 90 104 5 26 0 36 -33 66 -22 20 -85 57 -141 83 l-102 48
21 21 21 20 75 -34 c41 -19 91 -44 111 -56z m-199 1 c45 -19 49 -24 60 -70 7
-28 11 -52 9 -53 -2 -2 -52 -6 -112 -8 -116 -4 -108 -7 -121 54 -5 24 0 31 46
62 29 20 57 36 61 36 5 0 30 -9 57 -21z m1132 -11 c26 -11 54 -28 62 -37 16
-17 12 -18 -66 -24 -98 -8 -168 -9 -168 -2 0 2 14 25 32 49 28 40 34 44 62 39
17 -3 52 -14 78 -25z m-2038 -47 c3 -4 -5 -18 -19 -31 -28 -26 -39 -68 -31
-114 5 -28 16 -37 83 -72 43 -21 79 -47 81 -56 5 -25 -55 -38 -173 -38 -195 0
-219 20 -102 80 62 32 68 37 62 60 -4 14 -9 44 -12 67 -5 39 -2 46 30 78 33
33 70 45 81 26z m1104 -44 c10 -12 8 -16 -10 -21 -41 -10 -57 -6 -63 17 -19
64 -21 60 22 38 22 -11 45 -26 51 -34z m-400 3 c9 -37 8 -40 -12 -44 -21 -4
-586 -26 -664 -26 -41 0 -43 1 -40 27 2 14 15 35 29 46 27 19 27 19 90 -4 55
-20 81 -23 189 -23 127 1 272 21 345 48 22 8 43 15 46 15 4 1 11 -17 17 -39z
m2392 -33 c0 -7 -13 -26 -30 -42 -38 -36 -37 -42 1 -50 16 -4 28 -12 26 -18
-6 -19 -37 -20 -57 -2 -17 15 -21 15 -56 -4 -21 -12 -50 -21 -64 -20 -21 0
-19 3 16 19 57 25 63 39 28 67 l-29 23 26 0 c15 0 32 -7 39 -15 19 -22 29 -19
51 20 21 35 49 47 49 22z m-819 -50 c19 -12 40 -35 47 -50 26 -54 -12 -129
-74 -146 -94 -26 -182 64 -142 145 17 36 73 74 108 74 15 0 42 -10 61 -23z
m599 3 c0 -5 -12 -10 -27 -10 -36 0 -103 -31 -126 -58 -18 -20 -18 -20 2 -27
20 -6 121 21 121 32 0 3 -18 3 -40 -1 -54 -9 -51 9 4 23 60 15 86 14 86 -3 0
-20 -38 -42 -104 -61 -138 -40 -159 34 -26 94 48 22 110 28 110 11z m-243 -25
c2 -7 -18 -11 -49 -11 -65 0 -138 -34 -138 -64 0 -24 12 -25 105 -5 83 18 75
17 75 6 0 -11 -37 -21 -119 -31 -63 -8 -111 0 -111 19 0 23 63 80 98 89 46 13
134 11 139 -3z m-2768 -29 c-5 -5 -162 -86 -166 -86 -2 0 -3 7 -3 15 0 21 46
63 73 68 31 6 101 8 96 3z m227 -6 c5 0 31 -14 57 -30 44 -27 47 -32 36 -52
l-12 -22 -19 28 c-11 15 -43 41 -72 57 -31 19 -41 29 -26 25 14 -3 30 -6 36
-6z m1249 -4 c30 -13 68 -56 48 -56 -4 0 -35 16 -68 35 -44 25 -54 35 -37 35
12 0 38 -6 57 -14z m-385 -36 c-24 -22 -45 -40 -47 -40 -11 0 34 53 56 65 39
21 38 19 -9 -25z m-1663 0 c6 -24 11 -25 35 -3 10 9 21 13 26 9 4 -4 -5 -18
-20 -29 -22 -18 -25 -26 -16 -40 13 -24 0 -37 -16 -15 -10 13 -22 16 -52 12
l-39 -4 36 17 c30 15 35 21 28 38 -11 28 -11 35 2 35 6 0 13 -9 16 -20z m-192
0 c3 -5 12 -7 20 -3 8 3 15 1 15 -5 0 -6 -6 -13 -12 -15 -8 -3 -5 -6 5 -6 16
-1 15 -5 -8 -36 -33 -42 -55 -50 -100 -34 -53 20 -54 33 -2 90 18 20 71 26 82
9z m507 -41 c-5 -58 -22 -76 -22 -23 -1 42 0 43 -46 -20 -20 -28 -27 -14 -15
31 l10 38 -22 -26 c-12 -14 -27 -35 -33 -45 -7 -10 -15 -16 -19 -12 -10 10 41
87 62 95 9 4 21 -1 28 -10 10 -14 12 -13 24 4 20 33 36 17 33 -32z m-207 11
c-23 -45 -20 -52 21 -44 24 4 35 3 31 -3 -9 -15 -78 -26 -88 -16 -12 12 22 93
39 93 10 0 9 -7 -3 -30z"/>
<path d="M1430 2980 c-72 -13 -110 -44 -110 -91 0 -19 1 -19 30 2 47 35 122
37 220 5 129 -41 211 -31 218 27 3 28 3 28 -41 22 -31 -5 -64 -1 -104 10 -72
22 -167 32 -213 25z"/>
<path d="M1985 2398 c-9 -23 2 -51 17 -46 18 6 20 22 4 43 -14 19 -15 19 -21
3z"/>
<path d="M1816 2375 c-3 -8 -3 -22 0 -30 8 -21 34 0 34 26 0 23 -25 25 -34 4z"/>
<path d="M1705 2321 c4 -27 0 -60 -15 -109 -22 -73 -21 -102 8 -134 21 -25 33
-13 20 22 -8 24 -6 45 11 99 25 83 26 109 5 139 -24 34 -37 27 -29 -17z"/>
<path d="M3609 291 c-76 -76 10 -193 112 -151 98 41 67 180 -41 180 -33 0 -48
-6 -71 -29z m127 -39 c-4 -11 -18 -23 -31 -26 -16 -4 -22 -11 -19 -21 8 -21
-14 -45 -40 -45 -16 0 -18 2 -7 9 7 5 10 14 6 21 -9 15 25 52 42 46 20 -8 16
21 -4 33 -16 9 -15 11 7 19 31 12 55 -6 46 -36z"/>
<path d="M495 200 c-7 -12 12 -12 40 0 18 8 17 9 -7 9 -15 1 -30 -3 -33 -9z"/>
<path d="M520 148 c-22 -10 -23 -12 -6 -15 10 -3 26 2 34 11 19 18 8 20 -28 4z"/>
</g>
</svg>
