<?xml version="1.0" encoding="UTF-8" standalone="no"?>
<svg
   xmlns:dc="http://purl.org/dc/elements/1.1/"
   xmlns:cc="http://creativecommons.org/ns#"
   xmlns:rdf="http://www.w3.org/1999/02/22-rdf-syntax-ns#"
   xmlns:svg="http://www.w3.org/2000/svg"
   xmlns="http://www.w3.org/2000/svg"
   viewBox="0 0 3200 3200"
   height="3200"
   width="3200"
   xml:space="preserve"
   id="svg2"
   version="1.1"><metadata
     id="metadata8"><rdf:RDF><cc:Work
         rdf:about=""><dc:format>image/svg+xml</dc:format><dc:type
           rdf:resource="http://purl.org/dc/dcmitype/StillImage" /></cc:Work></rdf:RDF></metadata><defs
     id="defs6"><clipPath
       id="clipPath18"
       clipPathUnits="userSpaceOnUse"><path
         id="path16"
         d="M 0,2400 H 2400 V 0 H 0 Z" /></clipPath><clipPath
       id="clipPath282"
       clipPathUnits="userSpaceOnUse"><path
         id="path280"
         d="m 643.396,1684.428 c -12.367,-9.281 8.534,-23.402 8.534,-23.402 v 0 l 9.122,10.006 13.852,3.146 c 0,0 -3.471,16.696 -16.093,16.697 v 0 c -4.105,0 -9.178,-1.766 -15.415,-6.447" /></clipPath><clipPath
       id="clipPath294"
       clipPathUnits="userSpaceOnUse"><path
         id="path292"
         d="M 0,2400 H 2400 V 0 H 0 Z" /></clipPath><clipPath
       id="clipPath306"
       clipPathUnits="userSpaceOnUse"><path
         id="path304"
         d="m 853.855,1684.428 c -12.368,-9.281 8.533,-23.402 8.533,-23.402 v 0 l 9.122,10.006 13.852,3.146 c 0,0 -3.471,16.696 -16.093,16.697 v 0 c -4.105,0 -9.177,-1.766 -15.414,-6.447" /></clipPath><clipPath
       id="clipPath318"
       clipPathUnits="userSpaceOnUse"><path
         id="path316"
         d="M 0,2400 H 2400 V 0 H 0 Z" /></clipPath><clipPath
       id="clipPath386"
       clipPathUnits="userSpaceOnUse"><path
         id="path384"
         d="M 596.612,1721.53 H 744.016 V 1630.2 H 596.612 Z" /></clipPath><clipPath
       id="clipPath402"
       clipPathUnits="userSpaceOnUse"><path
         id="path400"
         d="m 830.486,1718.92 h 90.884 v -96.71 h -90.884 z" /></clipPath></defs><g
     transform="matrix(1.3333333,0,0,-1.3333333,0,3200)"
     id="g10"><g
       id="g12"><g
         clip-path="url(#clipPath18)"
         id="g14"><g
           transform="translate(1148.6255,1238.3462)"
           id="g20"><path
             id="path22"
             style="fill:#ffea30;fill-opacity:1;fill-rule:nonzero;stroke:none"
             d="m 0,0 c -3.513,22.94 -28.703,32.714 -49.191,30.857 -0.649,0.664 -1.341,1.282 -2.073,1.845 -3.603,12.441 -17.467,19.597 -29.707,19.995 -1.96,0.065 -3.96,-0.004 -5.984,-0.173 -4.839,1.297 -9.773,2.305 -14.807,3.046 -8.412,9.131 -20.793,11.775 -33.304,8.716 -9.494,-2.321 -18.848,-6.849 -27.837,-10.622 -19.333,-8.114 -38.193,-17.158 -56.471,-27.441 -8.897,-5.005 -12.637,-17.929 -6.996,-26.68 5.801,-8.997 17.162,-12.35 26.68,-6.995 6.834,3.844 13.75,7.537 20.744,11.073 0.327,-2.42 1.132,-4.775 2.5,-6.898 5.756,-8.928 17.216,-12.44 26.68,-6.995 6.658,3.83 13.487,7.244 20.461,10.456 0.488,0.224 0.829,0.384 1.065,0.498 0.198,0.076 0.452,0.175 0.785,0.307 0.208,0.083 0.417,0.165 0.626,0.248 -0.22,-2.88 0.235,-5.883 1.502,-8.886 3.917,-9.282 13.347,-13.256 23.005,-11.291 15.774,3.209 31.543,6.447 47.323,9.627 1.888,0.38 3.777,0.74 5.667,1.103 0.618,0.118 1.057,0.211 1.371,0.283 0.283,0.011 0.629,0.028 1.067,0.054 1.923,0.113 3.785,0.148 5.709,0.119 0.916,-0.015 1.446,-0.024 1.726,-0.033 0.012,-0.011 0.027,-0.025 0.041,-0.036 -0.609,-0.035 -2.115,-0.1 0.049,-0.295 0.14,-0.013 0.241,-0.016 0.354,-0.022 0.06,-0.044 0.102,-0.078 0.174,-0.126 0.333,-0.182 0.659,-0.377 0.983,-0.574 0.108,-0.505 0.196,-1.013 0.251,-1.528 1.549,-10.115 14.778,-16.6 23.987,-13.619 C -2.603,-20.422 1.66,-10.841 0,0" /></g><g
           transform="translate(93.252,1305.1904)"
           id="g24"><path
             id="path26"
             style="fill:#f61328;fill-opacity:1;fill-rule:nonzero;stroke:none"
             d="m 0,0 c 0,0 89.542,-274.274 745.739,-519.958 656.198,-245.684 1100.172,-375.219 1528.158,-293.301 0,0 -169.381,306.107 -1079.688,663.287 C 283.902,207.208 0,0 0,0" /></g><g
           transform="translate(87.0405,1303.478)"
           id="g28"><path
             id="path30"
             style="fill:#1e120d;fill-opacity:1;fill-rule:nonzero;stroke:none"
             d="m 0,0 c 3.44,-10.49 8.857,-20.572 14.183,-30.186 15.528,-28.038 34.825,-53.994 55.458,-78.453 86.591,-102.647 200.346,-181.814 316.073,-248.052 96.654,-55.32 198.062,-102.109 301.436,-143.376 121.883,-48.656 245.946,-92.617 369.94,-135.564 205.706,-71.249 414.85,-136.991 629.492,-175.41 175.737,-31.455 355.45,-42.561 532.708,-17.171 20.923,2.996 41.767,6.503 62.531,10.454 4.215,0.802 5.722,6.085 3.849,9.463 -6.785,12.236 -15.877,23.473 -24.579,34.346 -26.559,33.188 -56.817,63.422 -88.191,92.027 -55.707,50.79 -115.955,96.574 -178.028,139.264 -94.424,64.941 -193.683,122.736 -295.083,176.031 -140.772,73.988 -286.052,139.253 -433.405,198.96 C 1109.711,-104.183 950.188,-47.147 786.633,-4.004 671.169,26.453 553.526,50.273 434.541,61.509 355.695,68.955 275.853,70.956 197.004,62.425 150.403,57.384 103.701,48.942 59.356,33.436 41.013,27.022 21.083,19.828 4.959,8.621 4.3,8.162 3.61,7.748 2.96,7.274 -3.677,2.442 2.745,-8.741 9.463,-3.85 19.514,3.467 33.155,9.391 43.156,13.543 c 36.608,15.202 75.67,24.436 114.705,30.749 69.484,11.238 140.493,12.621 210.674,9.128 107.83,-5.367 214.863,-22.881 320.069,-46.649 152.374,-34.424 301.567,-82.322 447.701,-137.265 158.79,-59.701 315.255,-126.511 467.382,-201.63 111.143,-54.88 220.148,-114.511 324.43,-181.601 70.327,-45.245 138.725,-93.876 202.463,-148.088 37.777,-32.131 74.214,-66.22 106.755,-103.708 9.09,-10.473 17.294,-20.518 24.832,-30.812 3.739,-5.105 6.868,-11.864 11.186,-16.444 0.494,-0.524 0.839,-1.383 1.193,-2.02 1.284,3.154 2.567,6.307 3.85,9.462 -172.92,-32.911 -350.031,-29.823 -523.667,-3.918 -207.052,30.89 -409.121,90.352 -607.326,156.484 -120.805,40.307 -240.575,83.666 -359.914,128.104 -112.398,41.854 -223.182,87.512 -329.545,143.149 -129.294,67.631 -256.481,148.814 -356.483,256.377 -24.767,26.639 -47.875,55.067 -67.075,86.016 -5.594,9.017 -10.866,18.252 -15.544,27.78 -1.412,2.874 -2.762,5.776 -4.048,8.709 -0.942,2.149 0.24,-0.674 -0.785,1.867 -0.321,0.798 -0.591,1.638 -0.948,2.42 C 12.802,2.217 12.617,2.834 12.423,3.425 9.851,11.268 -2.594,7.91 0,0" /></g><g
           transform="translate(279.7686,1247.1714)"
           id="g32"><path
             id="path34"
             style="fill:#1e120d;fill-opacity:1;fill-rule:nonzero;stroke:none"
             d="m 0,0 c 126.231,-34.238 253.297,-65.07 378.938,-101.555 125.313,-36.39 249.625,-76.094 372.956,-118.713 122.724,-42.411 244.769,-86.799 366.136,-132.948 121.98,-46.383 243.314,-94.449 364.285,-143.395 120.941,-48.934 241.985,-97.524 362.584,-147.323 14.917,-6.159 29.93,-11.925 45.109,-17.4 2.827,-1.02 4.815,3.602 2.063,4.894 -58.168,27.318 -118.472,50.432 -177.853,74.98 -61.06,25.242 -122.253,50.168 -183.098,75.927 -119.424,50.56 -240.603,97.369 -361.657,143.869 -121.752,46.768 -244.06,92.232 -367.409,134.629 C 678.145,-184.445 553.436,-144 427.825,-106.714 302.462,-69.502 176.232,-35.293 48.531,-7.054 32.647,-3.541 16.597,-0.769 0.596,2.162 -0.802,2.417 -1.414,0.383 0,0" /></g><g
           transform="translate(1120.7739,1185.8262)"
           id="g36"><path
             id="path38"
             style="fill:#ffea30;fill-opacity:1;fill-rule:nonzero;stroke:none"
             d="m 0,0 c -1.018,9.071 -7.551,16.953 -14.039,22.628 -5.222,4.569 -11.204,7.68 -17.55,9.895 4.063,1.799 7.224,6.814 6.976,11.484 5.259,0.288 10.455,1.076 15.678,2.27 2.719,0.62 5.421,1.201 8.117,1.727 -53.997,10.023 -88.202,25.602 -141.057,40.716 -2.772,0.792 -14.091,1.443 -16.5,2.729 -0.462,-0.214 -12.52,-8.106 -13.029,-8.099 -3.716,0.052 -17.796,3.069 -10.971,-2.651 -8.06,-1.757 -14.455,-3.641 -20.808,-5.831 -6.017,-3.219 -12.057,-6.383 -17.949,-9.708 -5.394,-3.044 -10.794,-6.116 -16.18,-9.229 -2.814,-3.646 -6.278,-6.756 -10.207,-9.856 l 3.571,2.758 c -27.251,-21.131 -53.349,-44.421 -82.068,-63.661 -3.618,-9.651 -11.421,-17.648 -20.823,-22.048 5.3,-5.749 8.949,-13.099 10.359,-21.159 2.701,-5.303 4.325,-11.265 4.605,-17.517 0.212,-4.756 -0.627,-9.348 -2.277,-13.615 29.961,-22.167 70.985,-51.255 71.41,-52.385 0.061,-0.027 -2.67,21.061 -2.641,21 22.58,-48 33.542,46.97 57.726,47.25 0.159,-2.659 17.788,33.034 19.321,31.123 3.551,-4.428 8.026,6.7 13.048,8.311 10.195,3.265 14.493,13.686 23.166,20.096 2.023,1.493 5.122,-1.706 5.7,0.517 0.846,-0.104 -0.17,5.006 0.676,4.908 3.991,-0.465 7.892,1.395 10.341,4.495 6.246,0.695 12.453,1.909 18.728,2.365 15.571,1.131 31.318,-0.713 46.624,-3.422 15.846,-2.805 31.432,-6.816 47.054,-10.655 4.605,-1.132 9.263,-2.085 13.845,-0.11 C -3.161,-13.091 0.753,-6.71 0,0" /></g><g
           transform="translate(842.6758,988.1992)"
           id="g40"><path
             id="path42"
             style="fill:#1e120d;fill-opacity:1;fill-rule:nonzero;stroke:none"
             d="m 0,0 c 7.361,-5.28 16.128,-5.937 22.737,0.982 6.698,7.014 10.023,18.162 13.107,27.114 10.094,29.306 13.302,60.953 31.554,87.029 9.981,14.259 23.501,26.185 37.068,36.93 13.26,10.501 27.46,19.986 42.162,28.345 8.123,4.62 16.754,9.068 26.112,10.467 9.832,1.471 19.516,0.218 28.999,-2.506 20.191,-5.797 39.323,-14.906 59.742,-20.062 10.324,-2.607 19.99,0.054 26.195,8.946 5.195,7.444 6.446,17.768 3.248,26.232 -3.665,9.699 -11.208,16.913 -19.827,22.368 -9.176,5.808 -18.63,8.775 -28.893,11.86 -2.944,0.885 -5.461,-2.543 -3.946,-5.132 4.687,-8.01 11.171,-12.72 19.147,-17.169 6.547,-3.652 13.483,-7.948 17.112,-14.776 2.382,-4.482 3.041,-11.576 -1.576,-15.083 -2.365,-1.797 -4.998,-0.936 -7.669,-0.219 -4.915,1.32 -9.771,2.929 -14.611,4.497 -18.154,5.881 -35.951,14.564 -54.922,17.47 -9.842,1.508 -19.296,1.356 -28.868,-1.558 -8.598,-2.618 -16.805,-6.553 -24.632,-10.939 C 114.115,179.037 86.244,158.755 65.153,134.225 44.976,110.757 36.432,81.435 29.894,51.756 28.281,44.438 26.889,37.124 25.525,29.759 24.493,24.186 23.567,18.248 21.062,13.118 19.432,9.781 17.313,5.973 13.755,4.379 10.129,2.755 5.561,3.504 1.867,4.428 -0.913,5.122 -2.175,1.561 0,0" /></g><g
           transform="translate(1096.877,539.4961)"
           id="g44"><path
             id="path46"
             style="fill:#1e120d;fill-opacity:1;fill-rule:nonzero;stroke:none"
             d="M 0,0 C 0.828,0 0.829,1.285 0,1.285 -0.827,1.285 -0.829,0 0,0" /></g><g
           transform="translate(824.8779,797.8799)"
           id="g48"><path
             id="path50"
             style="fill:#ff8400;fill-opacity:1;fill-rule:nonzero;stroke:none"
             d="m 0,0 c 0,0 51.642,-118.087 36.424,-156.663 -15.217,-38.576 -64.988,-38.266 -2.551,-81.521 62.436,-43.255 162.955,-78.481 200.215,-51.196 37.26,27.285 102.952,69.396 80.621,81.92 -22.33,12.525 -216.438,-8.607 -219.294,27.588 C 85.674,-56.417 71.794,3.159 71.794,3.159 Z" /></g><g
           transform="translate(893.6138,800.1963)"
           id="g52"><path
             id="path54"
             style="fill:#1e120d;fill-opacity:1;fill-rule:nonzero;stroke:none"
             d="m 0,0 c 2.908,-7.858 4.639,-15.821 6.078,-24.062 1.364,-7.817 3.073,-15.583 4.112,-23.459 2.127,-16.135 2.575,-32.5 2.675,-48.755 0.09,-14.743 -0.193,-29.492 0.195,-44.231 0.3,-11.43 0.769,-23.329 3.939,-34.389 8.615,-30.047 45.296,-33.05 71.543,-35.25 43.449,-3.642 87.098,-4.591 130.674,-3.388 5.338,0.147 16.093,1.245 18.621,-5.082 2.767,-6.926 -7.116,-14.973 -11.757,-18.438 -16.881,-12.605 -34.341,-24.578 -51.588,-36.677 -15.698,-11.012 -32.095,-20.954 -51.926,-20.422 -19.939,0.535 -39.651,8.759 -57.969,15.968 -36.935,14.537 -72.403,33.083 -105.586,54.851 -4.032,2.644 -8.039,5.328 -11.995,8.084 -2.638,1.838 -6.991,4.506 -7.952,7.806 -0.919,3.156 2.47,5.777 4.375,7.825 3.232,3.473 6.281,7.072 9.163,10.843 10.081,13.193 17.737,28.938 19.028,45.689 0.617,8.005 -0.295,16.233 -1.078,24.192 -1.222,12.42 -2.911,24.798 -5.055,37.093 -4.238,24.308 -9.35,50.583 -21.438,72.389 -2.474,4.462 -6.392,6.654 -9.522,10.37 -3.842,4.564 -10.362,-2.015 -6.546,-6.546 -1.455,1.728 0.259,-0.959 0.58,-1.714 0.372,-0.873 0.71,-1.76 1.028,-2.655 0.932,-2.627 2.071,-5.07 3.274,-7.581 2.374,-4.952 4.357,-10.101 6.144,-15.29 4.44,-12.892 7.663,-26.201 10.342,-39.56 4.378,-21.82 8.295,-44.715 7.803,-67.061 -0.318,-14.466 -7.435,-28.471 -15.965,-39.827 -5.325,-7.089 -14.042,-13.271 -16.664,-21.997 -2.675,-8.903 2.533,-17.207 9.157,-22.727 7.567,-6.307 16.218,-11.545 24.497,-16.852 8.627,-5.53 17.404,-10.828 26.312,-15.894 17.819,-10.134 36.2,-19.257 55.013,-27.399 18.835,-8.15 38.356,-16.561 58.389,-21.267 20.434,-4.801 40.271,-3.893 59.345,5.228 18.393,8.796 34.613,22.454 51.047,34.348 8.742,6.326 17.695,12.46 26.204,19.098 6.743,5.259 13.944,12.344 16.069,20.934 2.023,8.184 -1.203,16.533 -8.34,21.09 -6.74,4.305 -15.294,4.391 -23.01,4.169 -22.283,-0.639 -44.571,-0.734 -66.857,-0.156 -22.281,0.578 -44.539,1.815 -66.756,3.597 -16.769,1.343 -37.475,2.53 -50.634,14.478 -5.672,5.149 -7.501,15.023 -8.498,23.113 -1.665,13.515 -1.541,27.255 -1.62,40.849 -0.095,16.275 -0.246,32.563 -1.389,48.807 -1.167,16.587 -2.618,34.106 -8.017,49.909 C 12.833,-12.303 9.355,-4.806 5.797,2.443 4.233,5.63 -1.253,3.388 0,0" /></g><g
           transform="translate(1105.4531,539.9102)"
           id="g56"><path
             id="path58"
             style="fill:#1e120d;fill-opacity:1;fill-rule:nonzero;stroke:none"
             d="M 0,0 C 1.143,0 2.343,0.498 3.152,1.306 3.925,2.079 4.507,3.348 4.457,4.458 4.349,6.873 2.499,8.915 0,8.915 -1.143,8.915 -2.344,8.418 -3.152,7.609 -3.925,6.837 -4.507,5.568 -4.458,4.458 -4.35,2.043 -2.499,0 0,0" /></g><g
           transform="translate(738.3076,1234.3799)"
           id="g60"><path
             id="path62"
             style="fill:#ffea30;fill-opacity:1;fill-rule:nonzero;stroke:none"
             d="m 0,0 c -5.351,6.922 -9.355,14.785 -13.034,22.907 -0.925,2.042 -1.069,4.211 -0.633,6.265 -7.625,19.243 -10.024,39.773 2.348,54.89 2.318,13.787 9.668,25.706 19.432,36.148 3.969,4.245 8.391,8.357 12.908,12.369 3.041,3.533 6.236,6.89 9.47,10.055 13.944,13.647 29.5,25.288 44.96,37.124 9.099,6.966 17.924,14.116 26.357,21.887 8.571,7.897 16.809,16.438 26.192,23.388 14.624,10.833 30.777,19.427 45.609,29.969 2.858,2.032 5.676,4.116 8.391,6.277 29.443,37.068 39.099,77.189 -6.885,122.628 -97.641,96.485 4.797,186.171 -161.945,262.349 -6.664,3.045 -13.37,5.7 -20.104,8.008 -10.871,9.368 -25.008,15.926 -37.968,21.488 -14.842,6.37 -30.336,11.146 -45.82,15.674 -29.37,8.59 -59.289,16.015 -86.903,29.549 -7.535,3.692 -15.17,7.426 -22.274,11.908 -7.671,4.839 -13.651,10.339 -19.29,17.433 -3.763,4.734 -10.44,1.641 -10.436,-3.993 0.006,-7.284 1.195,-14.447 3.365,-21.311 -1.805,-3.411 -1.253,-8.415 2.926,-10.26 0.489,-0.216 0.979,-0.435 1.468,-0.652 2.897,-5.901 6.512,-11.475 10.716,-16.582 0.114,-1.004 0.453,-2.035 1.085,-3.056 5.002,-8.079 11.134,-15.383 18.134,-21.724 -6.203,-0.281 -12.404,-0.594 -18.604,-0.94 -23.629,0.106 -47.275,3.853 -69.764,10.984 -7.327,2.323 -12.08,-7.278 -5.037,-11.042 2.386,-1.275 4.773,-2.551 7.159,-3.825 0.007,-0.005 0.013,-0.01 0.021,-0.014 11.65,-6.368 23.422,-12.523 35.135,-18.775 1.351,-0.721 2.621,-0.861 3.742,-0.606 0.764,-0.384 1.529,-0.767 2.293,-1.15 5.81,-3.783 11.563,-7.665 17.316,-11.534 -50.68,-21.536 -91.346,-49.095 -111.989,-64.368 -2.847,-2.106 -0.606,-6.575 2.791,-5.571 25.926,7.672 60.966,15.033 60.966,15.033 l -54.038,-34.868 c -2.682,-1.729 -1.04,-5.896 2.099,-5.318 37.706,6.949 100.943,8.535 100.943,8.535 0,0 -53.258,-1.833 -113.051,-102.235 -59.793,-100.401 14.725,-140.163 105.806,-253.911 C -135.062,79.386 -95.537,-23.814 -91.417,-80.292 L 38.289,-62.43 C 37.494,-59.319 18.021,-28.075 17.285,-25.17 10.762,-17.32 5.205,-8.775 0,0" /></g><g
           transform="translate(514.0708,1225.8564)"
           id="g64"><path
             id="path66"
             style="fill:#ffea30;fill-opacity:1;fill-rule:nonzero;stroke:none"
             d="m 0,0 c 24.603,-53.091 58.12,-121.463 82.231,-136.707 37.393,-23.643 51.014,33.117 47.25,96.333 -0.261,4.395 -0.793,8.825 -1.577,13.3 8.875,-5.436 18.408,-9.708 28.612,-12.796 13.208,-7.408 27.383,-11.006 42.525,-10.795 14.449,-3.62 28.83,-3.396 43.141,0.673 6.148,0.153 12.112,0.942 17.898,2.354 21.526,-55.271 33.663,-85.926 93.812,-119.508 74.362,-41.515 127.891,-77.373 126.719,-156.316 -1.172,-78.943 -76.515,-188.483 -180.579,-204.518 -104.065,-16.036 -173.184,-17.042 -258.931,24.219 -85.747,41.262 -120.425,100.375 -110.595,161.399 9.83,61.023 35.637,145.347 36.359,222.518 0.362,38.751 2.976,81.688 5.49,114.835 C -26.515,9.903 -6.288,13.568 0,0" /></g><g
           transform="translate(713.2197,1286.4775)"
           id="g68"><path
             id="path70"
             style="fill:#1e120d;fill-opacity:1;fill-rule:nonzero;stroke:none"
             d="m 0,0 c 2.906,-15.668 9.355,-30.698 15.89,-45.141 8.006,-17.694 17.087,-34.899 26.551,-51.851 14.744,-26.407 30.392,-52.405 47.107,-77.617 12.186,-18.382 27.184,-34.448 45.969,-46.201 24.006,-15.02 51.117,-24.279 74.004,-41.208 46.843,-34.648 71.2,-94.456 62.175,-151.958 -4.988,-31.786 -19.382,-60.734 -40.702,-84.707 -21.4,-24.06 -47.692,-42.984 -74.197,-60.975 -5.809,-3.945 -0.325,-13.455 5.538,-9.475 47.428,32.195 94.643,69.047 113.433,125.497 18.676,56.114 6.448,118.358 -31.36,163.628 -18.168,21.754 -41.384,36.796 -66.564,49.249 -12.964,6.412 -26.128,12.562 -38.321,20.392 -11.181,7.179 -21.019,16.195 -29.535,26.376 -8.283,9.901 -15.085,21.09 -21.97,31.986 -9.236,14.614 -18.208,29.399 -26.881,44.355 C 49.868,-88.218 39.032,-68.492 29.365,-48.208 21.617,-31.949 13.886,-14.904 10.58,2.917 9.294,9.85 -1.282,6.914 0,0" /></g><g
           transform="translate(904.626,746.4023)"
           id="g72"><path
             id="path74"
             style="fill:#1e120d;fill-opacity:1;fill-rule:nonzero;stroke:none"
             d="m 0,0 c -34.083,-22.249 -72.332,-37.734 -112.442,-44.946 -41.117,-7.394 -83.409,-7.284 -124.987,-4.964 -24.107,1.346 -48.486,2.995 -71.572,10.598 -21.984,7.241 -42.024,19.291 -61.384,31.761 -18.417,11.863 -36.465,24.716 -51.073,41.201 -14.574,16.447 -24.05,36.377 -29.001,57.708 -5.815,25.059 -5.481,51.281 -1.604,76.607 2.128,13.904 5.218,27.645 8.787,41.246 1.709,6.51 3.531,12.989 5.415,19.45 0.986,3.381 2.078,6.74 3.006,10.137 1.011,3.7 0.813,7.063 0.573,10.886 -0.259,4.143 -5.006,5.053 -7.347,1.99 -7.917,-10.354 -10.163,-24.737 -13.48,-37.207 -3.288,-12.359 -6.199,-24.826 -8.367,-37.433 -4.129,-24.003 -5.622,-48.336 -2.333,-72.532 3.074,-22.619 10.304,-44.919 22.988,-64.034 12.786,-19.269 30.38,-34.493 49.102,-47.784 19.394,-13.77 39.947,-26.754 61.708,-36.448 23.354,-10.401 47.732,-15.02 73.118,-16.972 44.192,-3.398 89.114,-4.058 133.081,2.193 46.631,6.629 94.209,21.345 127.422,56.456 C 2.612,-1.027 1.308,0.854 0,0" /></g><g
           transform="translate(457.6382,967.0811)"
           id="g76"><path
             id="path78"
             style="fill:#1e120d;fill-opacity:1;fill-rule:nonzero;stroke:none"
             d="m 0,0 c 5.009,7.127 7.261,15.687 11.044,23.488 3.879,7.999 5.938,16.714 7.785,25.382 3.655,17.162 6.149,34.565 7.971,52.011 3.733,35.744 4.199,71.734 5.51,107.621 0.324,8.885 0.694,17.768 1.157,26.646 0.323,6.194 0.587,12.721 3.447,18.378 8.082,15.987 21.333,-13.594 24.576,-19.274 9.699,-16.993 19.751,-33.792 29.652,-50.669 8.416,-14.346 16.179,-29.405 25.569,-43.139 7.176,-10.496 16.634,-20.988 29.082,-25.022 6.314,-2.047 13.078,-1.657 19.137,0.976 8.017,3.486 12.682,10.565 15.217,18.709 1.286,4.132 -3.762,6.066 -6.59,3.836 -4.773,-3.759 -11.072,-9.485 -17.353,-10.383 -4.389,-0.629 -8.565,1.433 -12.092,3.818 -8.781,5.937 -14.795,15.374 -20.09,24.322 -9.966,16.842 -19.932,33.684 -29.898,50.525 -9.759,16.491 -19.075,33.402 -29.61,49.413 -3.866,5.875 -8.78,11.846 -15.683,14.153 -6.323,2.112 -13.286,0.706 -18.268,-3.734 C 19.924,257.573 20.439,240.764 19.907,227.812 18.418,191.598 18.372,155.325 15.908,119.153 14.538,99.029 12.603,78.954 9.054,59.084 7.3,49.262 4.563,39.49 3.353,29.596 2.753,24.693 2.349,19.917 1.08,15.12 -0.215,10.226 -1.481,5.583 -1.997,0.54 -2.115,-0.618 -0.544,-0.774 0,0" /></g><g
           transform="translate(855.6221,1591.9976)"
           id="g80"><path
             id="path82"
             style="fill:#ff8400;fill-opacity:1;fill-rule:nonzero;stroke:none"
             d="m 0,0 c 2.349,-0.846 134.194,-120.293 134.194,-120.293 0,0 42.868,-59.779 -36.017,-77.76 -78.885,-17.982 -114.803,-3.231 -158.12,-9.105 -43.316,-5.875 -81.646,-16.625 -117.276,11.578 -34.628,27.411 -26.956,41.846 -12.445,92.516 14.511,50.669 -10.424,97.32 75.523,99.089 C -28.193,-2.205 -21.635,7.788 0,0" /></g><g
           transform="translate(1013.9663,1446.2036)"
           id="g84"><path
             id="path86"
             style="fill:#ff7400;fill-opacity:1;fill-rule:nonzero;stroke:none"
             d="m 0,0 c 0,0 -0.931,-33.419 -25.813,-37 -24.882,-3.582 -84.425,-3.616 -142.333,-3.833 -57.91,-0.218 -81.424,-10.993 -123.238,-6.98 -41.814,4.015 -76.798,20.078 -75.969,26.296 0.829,6.219 2.702,11.412 2.702,11.412 8.674,11.767 128.002,5.774 128.002,5.774 z" /></g><g
           transform="translate(770.9839,1464.7075)"
           id="g88"><path
             id="path90"
             style="fill:#ff8400;fill-opacity:1;fill-rule:nonzero;stroke:none"
             d="m 0,0 c 0,0 128.628,43.919 204.287,34.104 75.658,-9.817 118.242,-35.372 92.409,-55.943 -25.833,-20.572 -56.829,-20.452 -128.074,-23.869 -71.244,-3.417 -203.534,-16.756 -236.87,-12.351 -33.336,4.405 -64.671,13.902 -55.415,42.412 C -114.406,12.863 0,0 0,0" /></g><g
           transform="translate(766.8779,1560.7065)"
           id="g92"><path
             id="path94"
             style="fill:#672900;fill-opacity:1;fill-rule:nonzero;stroke:none"
             d="m 0,0 c -1.409,-5.952 0.009,-11.063 3.167,-11.417 3.158,-0.354 6.86,4.184 8.269,10.136 C 12.845,4.67 11.427,9.782 8.269,10.136 5.111,10.49 1.409,5.952 0,0" /></g><g
           transform="translate(830.8652,1560.5674)"
           id="g96"><path
             id="path98"
             style="fill:#672900;fill-opacity:1;fill-rule:nonzero;stroke:none"
             d="m 0,0 c 0.982,-5.915 4.362,-10.344 7.549,-9.893 3.187,0.451 4.974,5.612 3.992,11.527 C 10.558,7.549 7.178,11.979 3.991,11.527 0.804,11.076 -0.983,5.915 0,0" /></g><g
           transform="translate(720.7354,1555.5449)"
           id="g100"><path
             id="path102"
             style="fill:#1e120d;fill-opacity:1;fill-rule:nonzero;stroke:none"
             d="m 0,0 c -0.146,-4.595 3.247,-8.712 3.877,-13.339 0.651,-4.779 0.304,-9.905 -0.698,-14.606 -2.406,-11.284 -7.413,-21.585 -11.453,-32.319 -6.279,-16.683 -11.547,-41.607 6.396,-53.124 1.861,-1.195 3.494,1.075 2.752,2.753 -3.945,8.925 -5.678,18.893 -3.643,28.513 2.311,10.92 7.613,20.953 11.826,31.207 3.936,9.582 7.182,19.394 6.916,29.884 C 15.782,-13.471 12.902,0.942 4.391,3.345 2.163,3.975 0.071,2.227 0,0" /></g><g
           transform="translate(664.7456,1414.0488)"
           id="g104"><path
             id="path106"
             style="fill:#1e120d;fill-opacity:1;fill-rule:nonzero;stroke:none"
             d="m 0,0 c 10.299,-5.345 21.72,-7.125 33.181,-8.439 12.405,-1.422 24.929,-1.555 37.395,-1.069 25.108,0.979 50.016,4.484 75.012,6.822 27.343,2.559 54.666,3.201 82.111,3.309 26.649,0.105 53.293,-1.687 79.939,-1.027 24.725,0.612 49.957,3.514 73.145,12.564 5.045,1.969 10.01,4.181 14.777,6.756 4.97,2.685 10.847,5.679 14.472,10.132 7.208,8.854 -0.859,18.302 -7.458,24.454 -30.969,28.876 -76.725,38.248 -117.813,38.46 -28.015,0.145 -56.036,-4.25 -83.214,-10.799 -28.246,-6.807 -55.936,-15.343 -81.981,-28.293 -2.2,-1.094 -0.606,-4.282 1.604,-3.804 23.846,5.158 46.672,13.262 70.165,19.739 23.409,6.455 47.342,11.548 71.585,13.457 40.2,3.166 84.546,-1.801 119.148,-24.044 3.674,-2.362 7.222,-4.918 10.558,-7.739 3.58,-3.026 8.275,-6.579 10.426,-10.815 2.915,-5.74 -4.932,-9.061 -9.083,-11.465 C 388.989,25.315 383.78,22.82 378.422,20.724 356.544,12.162 332.931,9.218 309.587,8.529 284.569,7.791 259.555,9.416 234.538,9.504 209.404,9.594 184.297,7.932 159.255,5.886 132.682,3.715 106.268,-0.199 79.657,-1.921 66.517,-2.771 53.324,-3.043 40.18,-2.137 27.097,-1.236 14.548,1.873 1.684,3.994 -0.579,4.367 -2.374,1.231 0,0" /></g><g
           transform="translate(963.6089,1503.0474)"
           id="g108"><path
             id="path110"
             style="fill:#1e120d;fill-opacity:1;fill-rule:nonzero;stroke:none"
             d="m 0,0 c -1.52,2.987 -4.1,4.034 -6.887,5.729 -2.862,1.741 -5.643,3.604 -8.473,5.395 -5.976,3.781 -11.859,7.654 -17.476,11.96 -10.622,8.143 -20.584,17.892 -29.694,27.688 -4.391,4.721 -8.587,9.624 -12.624,14.651 -3.551,4.422 -6.693,9.194 -10.828,13.105 -4.182,3.956 -8.843,7.5 -13.631,10.688 -3.46,2.304 -9.55,7.43 -13.772,4.643 -1.5,-0.989 -1.95,-2.436 -1.685,-4.141 0.676,-4.342 8.675,-6.893 11.999,-9.146 4.654,-3.156 9.258,-6.671 13.084,-10.817 4.109,-4.453 7.543,-9.599 11.438,-14.251 4.142,-4.948 8.457,-9.752 12.945,-14.389 9.289,-9.597 19.399,-17.71 30.362,-25.309 5.778,-4.006 11.766,-7.933 18.038,-11.126 4.593,-2.337 11.49,-6.823 16.81,-5.648 C 0.044,-0.872 0.183,-0.359 0,0" /></g><g
           transform="translate(688.8213,1578.2769)"
           id="g112"><path
             id="path114"
             style="fill:#1e120d;fill-opacity:1;fill-rule:nonzero;stroke:none"
             d="m 0,0 c -13.89,-3.805 -17.458,-20.081 -18.251,-32.457 -0.564,-8.781 -0.665,-17.507 -2.061,-26.224 -1.522,-9.508 -3.934,-18.864 -7.142,-27.942 -5.819,-16.464 -16.859,-32.118 -16.37,-50.206 0.175,-6.468 1.533,-12.944 4.381,-18.775 2.471,-5.057 8.023,-12.688 14.335,-12.322 3.407,0.198 5.653,3.694 3.905,6.805 -1.432,2.548 -4.068,3.662 -5.929,5.854 -1.773,2.089 -3.079,4.623 -3.985,7.199 -1.818,5.175 -2.388,10.876 -1.776,16.323 0.897,7.98 4.489,15.556 7.701,22.808 3.482,7.862 6.772,15.772 9.284,24.005 4.691,15.369 6.707,31.095 7.036,47.119 0.128,6.275 0.303,12.62 1.881,18.726 0.759,2.936 1.8,5.845 3.056,8.597 1.384,3.032 3.849,5.404 5.776,8.095 C 2.699,-1.198 1.285,0.352 0,0" /></g><g
           transform="translate(997.0737,1418.46)"
           id="g116"><path
             id="path118"
             style="fill:#1e120d;fill-opacity:1;fill-rule:nonzero;stroke:none"
             d="m 0,0 c -14.401,-16.602 -37.444,-22.439 -58.347,-25.656 -26.484,-4.077 -53.543,-0.689 -80.159,-0.208 -13.968,0.253 -27.923,-0.242 -41.74,-2.425 -13.893,-2.194 -27.45,-6.106 -41.343,-8.295 -22.83,-3.598 -46.507,-1.043 -68.131,7.066 -11.236,4.214 -22.138,10.139 -31.413,17.793 -4.17,3.442 -8.069,7.22 -11.571,11.341 -3.671,4.322 -6.132,9.352 -10.511,12.97 -2.155,1.782 -6.648,0.895 -6.277,-2.6 1.06,-9.967 9.899,-18.723 17.034,-25.305 8.279,-7.637 17.812,-13.935 27.946,-18.822 21.461,-10.349 45.666,-15.177 69.46,-13.931 14.396,0.753 28.382,4.129 42.41,7.21 14.72,3.233 29.407,5.019 44.483,5.196 28.968,0.341 57.973,-3.318 86.831,0.648 24.188,3.325 49.559,12.09 64.488,32.58 C 4.499,-0.601 1.493,1.721 0,0" /></g><g
           transform="translate(671.3013,1417.1479)"
           id="g120"><path
             id="path122"
             style="fill:#1e120d;fill-opacity:1;fill-rule:nonzero;stroke:none"
             d="m 0,0 c -21.787,17.981 -51.598,19.198 -77.879,26.179 -29.376,7.802 -59.034,27.229 -74.392,53.96 -3.641,6.335 -6.48,13.298 -7.434,20.588 -0.928,7.086 0.204,14.125 -0.451,21.147 -0.208,2.231 -2.697,3.448 -4.441,1.839 -10.326,-9.517 -7.053,-27.153 -2.374,-38.65 5.971,-14.671 16.396,-27.271 28.294,-37.569 12.855,-11.126 27.554,-19.972 43.355,-26.227 C -80.06,15.225 -63.709,12.626 -47.647,9.626 -31.907,6.687 -17.113,0.488 -1.519,-2.609 -0.141,-2.882 1.309,-1.08 0,0" /></g><g
           transform="translate(548.4937,1521.2109)"
           id="g124"><path
             id="path126"
             style="fill:#1e120d;fill-opacity:1;fill-rule:nonzero;stroke:none"
             d="m 0,0 c -8.346,15.269 -25.415,26.097 -43.055,26.504 -7.688,0.177 -15.755,-2.024 -21.164,-7.754 -4.546,-4.814 -6.868,-13.67 -1.206,-18.624 1.307,-1.143 3.372,-0.731 3.885,1.026 1.465,5.022 2.404,9.732 7.141,12.836 5.219,3.42 12.288,3.165 18.16,2.009 C -23.306,13.45 -13.071,4.44 -1.898,-1.898 -0.674,-2.593 0.663,-1.213 0,0" /></g><g
           transform="translate(921.5376,1560.2383)"
           id="g128"><path
             id="path130"
             style="fill:#1e120d;fill-opacity:1;fill-rule:nonzero;stroke:none"
             d="m 0,0 c -2.435,-2.943 -3.277,-7.954 -4.254,-11.618 -1.146,-4.299 -2.738,-9.292 -1.999,-13.699 0.507,-3.032 4.517,-2.822 5.955,-0.778 2.433,3.459 2.962,9.304 3.269,13.499 0.275,3.758 0.754,9.052 -1.194,12.367 C 1.436,0.351 0.473,0.572 0,0" /></g><g
           transform="translate(677.1924,1540.3784)"
           id="g132"><path
             id="path134"
             style="fill:#1e120d;fill-opacity:1;fill-rule:nonzero;stroke:none"
             d="m 0,0 c -0.344,8.851 -0.851,21.034 5.302,28.247 5.29,6.2 13.406,8.211 20.721,10.925 15.726,5.834 32.186,7.391 48.852,7.633 18.388,0.266 36.769,-0.66 55.031,2.043 9,1.332 17.933,3.175 27.068,3.191 3.933,0.007 7.883,-0.104 11.739,-0.936 4.318,-0.931 8.254,-1.517 12.608,-2.124 1.094,-0.152 2.196,0.875 1.528,1.988 -3.594,5.988 -8.094,8.252 -14.851,9.768 -7.329,1.645 -14.636,1.55 -22.061,0.691 -8.386,-0.969 -16.67,-2.655 -25.064,-3.552 -8.262,-0.883 -16.577,-1.128 -24.88,-1.23 C 80.341,56.451 64.669,56.819 49.123,54.664 41.744,53.641 34.431,52.05 27.393,49.585 20.424,47.145 15.358,43.425 9.458,39.137 4.001,35.171 -0.822,30.734 -2.757,24.061 -5.028,16.227 -4.954,7.482 -3.611,-0.489 -3.266,-2.538 0.08,-2.051 0,0" /></g><g
           transform="translate(942.6294,1517.9883)"
           id="g136"><path
             id="path138"
             style="fill:#1e120d;fill-opacity:1;fill-rule:nonzero;stroke:none"
             d="M 0,0 C 7.564,13.124 13.64,30.883 8.931,46.026 8.363,47.854 6.736,49.135 4.807,49.166 3.977,49.179 3.374,48.965 2.649,48.582 1.424,47.934 0.401,46.303 0.531,44.889 1.184,37.764 1.861,31.146 0.432,24.031 -0.979,17.006 -3.61,10.383 -7.012,4.099 -9.499,-0.493 -2.618,-4.542 0,0" /></g><g
           transform="translate(470,1815.4634)"
           id="g140"><path
             id="path142"
             style="fill:#1e120d;fill-opacity:1;fill-rule:nonzero;stroke:none"
             d="m 0,0 c -4.415,1.661 -10.147,0.187 -14.769,-0.172 -4.925,-0.383 -9.674,-1.213 -14.488,-1.952 -10.784,-1.656 -21.502,-3.579 -32.237,-5.655 -6.309,-1.22 -3.638,-10.855 2.657,-9.638 10.741,2.077 21.423,4.524 32.109,6.7 5.041,1.027 9.886,2.425 14.801,3.971 4.111,1.293 9.163,2.013 12.392,4.984 C 1.096,-1.182 0.698,-0.262 0,0" /></g><g
           transform="translate(468.3042,1817.0342)"
           id="g144"><path
             id="path146"
             style="fill:#1e120d;fill-opacity:1;fill-rule:nonzero;stroke:none"
             d="m 0,0 c -10.658,-4.816 -21.039,-10.065 -30.855,-16.419 -9.436,-6.107 -20.075,-11.488 -28.605,-18.818 -5.278,-4.535 3.884,-12.529 7.825,-6.038 1.094,1.801 2.945,2.936 4.421,4.423 1.841,1.854 -0.544,5.125 -2.839,3.68 -0.963,-0.821 -2.086,-1.249 -3.369,-1.286 v -8.605 c 10.314,4.945 19.709,12.845 29.285,19.105 9.412,6.151 18.057,13.494 26.408,21.014 C 3.965,-1.418 1.811,0.818 0,0" /></g><g
           transform="translate(523.0937,1783.6992)"
           id="g148"><path
             id="path150"
             style="fill:#1e120d;fill-opacity:1;fill-rule:nonzero;stroke:none"
             d="M 0,0 C -10.091,2.319 -19.928,3.619 -30.281,4.472 -40.467,5.311 -50.784,5.255 -61,5.286 -70.661,5.314 -80.399,5.396 -90.035,4.621 -98.701,3.924 -108.373,2.7 -115.949,-1.87 c -4.717,-2.844 -1.683,-10.947 3.851,-9.134 8.594,2.815 16.452,4.994 25.545,5.566 9.156,0.575 18.365,0.615 27.535,0.631 9.582,0.017 19.158,-0.429 28.737,-0.42 9.978,0.009 19.74,0.116 29.679,0.779 C 1.82,-4.287 2.625,-0.603 0,0" /></g><g
           transform="translate(520.9067,1785.1709)"
           id="g152"><path
             id="path154"
             style="fill:#1e120d;fill-opacity:1;fill-rule:nonzero;stroke:none"
             d="m 0,0 c -14.718,0.089 -29.298,-6.38 -41.738,-13.774 -13.272,-7.889 -25.326,-17.87 -36.068,-28.931 -22.106,-22.766 -41.626,-51.642 -52.125,-81.69 -6.335,-18.132 -8.425,-36.894 1.276,-54.225 1.352,-2.414 4.483,-0.631 4.139,1.745 -4.673,32.378 8.919,62.872 26.046,89.493 15.187,23.606 34.115,45.936 57.683,61.53 13.296,8.798 27.82,14.029 42.205,20.614 C 4.059,-4.03 2.612,-0.016 0,0" /></g><g
           transform="translate(620.6528,1081.5234)"
           id="g156"><path
             id="path158"
             style="fill:#1e120d;fill-opacity:1;fill-rule:nonzero;stroke:none"
             d="m 0,0 c 26.672,20.581 31.809,58.018 28.091,89.443 -4.779,40.385 -21.129,79.023 -39.685,114.855 -20.266,39.134 -44.391,76.24 -70.123,111.975 -20.344,28.252 -41.834,55.669 -64.235,82.315 -33.444,39.781 -71.432,80.29 -80.115,133.614 -1.288,7.914 -1.609,15.363 -4.406,22.937 -1.021,2.766 -4.425,2.62 -5.497,0 -5.751,-14.066 -0.735,-31.73 3.643,-45.702 4.752,-15.162 11.708,-29.627 19.865,-43.236 14.334,-23.914 32.38,-45.11 50.641,-66.059 20.064,-23.017 39.133,-46.925 57.417,-71.375 25.741,-34.423 50.003,-70.083 71.222,-107.487 C -12.925,185.574 5.621,147.653 14.605,107.363 21.575,76.108 21.874,42.026 2.171,15.177 -0.057,12.141 -2.424,9.152 -4.826,6.255 -7.457,3.082 -3.859,-2.979 0,0" /></g><g
           transform="translate(403.3345,1796.2808)"
           id="g160"><path
             id="path162"
             style="fill:#1e120d;fill-opacity:1;fill-rule:nonzero;stroke:none"
             d="m 0,0 c 10.201,6.427 20.272,12.722 29.823,20.104 9.467,7.318 19.154,14.363 29.132,20.969 4.805,3.181 9.764,6.139 14.46,9.473 4.209,2.988 9.575,5.514 14.336,8.068 10.496,5.629 20.844,10.116 29.796,18.16 1.544,1.388 0.253,3.81 -1.611,3.89 C 103.596,81.19 93.309,76.474 82.632,70.787 72.205,65.232 62.091,59.028 52.464,52.178 42.578,45.144 33.015,37.656 23.601,30.005 13.836,22.07 5.512,13.108 -2.982,3.865 -4.808,1.878 -2.457,-1.547 0,0" /></g><g
           transform="translate(426.1724,1932.5596)"
           id="g164"><path
             id="path166"
             style="fill:#1e120d;fill-opacity:1;fill-rule:nonzero;stroke:none"
             d="m 0,0 c -0.519,-3.887 3.182,-7.994 5.223,-11.069 2.637,-3.971 5.39,-7.939 8.701,-11.378 6.97,-7.241 14.877,-13.752 23.373,-19.13 8.351,-5.286 17.223,-9.662 26.418,-13.274 4.585,-1.8 9.24,-3.316 14.013,-4.531 5.518,-1.405 9.287,-1.197 14.77,-0.13 3.253,0.634 3.356,5.122 0.874,6.69 -4.211,2.662 -7.413,4.325 -12.249,5.755 -4.211,1.244 -8.392,2.649 -12.507,4.182 -8.686,3.235 -17.005,7.443 -24.869,12.343 -7.699,4.798 -15.086,10.032 -21.977,15.94 -3.353,2.876 -6.901,5.505 -10.243,8.397 C 8.715,-3.772 5.542,0.75 1.73,1.318 0.767,1.462 0.127,0.954 0,0" /></g><g
           transform="translate(425.8921,1931.2061)"
           id="g168"><path
             id="path170"
             style="fill:#1e120d;fill-opacity:1;fill-rule:nonzero;stroke:none"
             d="m 0,0 c 3.371,-4.015 8.432,-6.648 12.899,-9.283 4.78,-2.82 9.778,-5.251 14.92,-7.343 10.545,-4.29 21.871,-6.838 33.077,-8.672 11.114,-1.819 22.313,-2.719 33.569,-2.966 5.736,-0.125 11.535,0.114 17.22,0.927 2.723,0.39 5.583,0.719 8.251,1.399 2.753,0.702 4.889,2.176 7.462,3.273 1.552,0.663 0.963,3.013 -0.446,3.415 -2.533,0.725 -4.75,1.866 -7.381,2.272 -2.565,0.396 -5.193,0.542 -7.775,0.793 -5.166,0.501 -10.408,0.733 -15.597,0.852 -10.937,0.251 -21.901,1.079 -32.743,2.545 -10.507,1.42 -20.779,3.806 -31.018,6.502 -4.932,1.299 -9.846,2.615 -14.736,4.065 C 12.394,-0.647 7.142,2.045 1.685,2.895 -0.037,3.163 -1.162,1.384 0,0" /></g><g
           transform="translate(552.4551,1912.1035)"
           id="g172"><path
             id="path174"
             style="fill:#1e120d;fill-opacity:1;fill-rule:nonzero;stroke:none"
             d="m 0,0 c -13.367,7.486 -24.577,18.34 -31.441,32.125 -3.774,7.58 -6.28,15.904 -7.183,24.327 -0.93,8.669 0.955,17.17 0.211,25.778 -0.152,1.763 -2.39,2.529 -3.397,0.92 -4.822,-7.711 -4.564,-17.939 -3.65,-26.698 0.955,-9.151 3.393,-18.122 7.567,-26.338 C -30.298,15.167 -17.659,2.825 -2.346,-4.013 0.323,-5.205 2.668,-1.494 0,0" /></g><g
           transform="translate(545.1182,1961.4248)"
           id="g176"><path
             id="path178"
             style="fill:#1e120d;fill-opacity:1;fill-rule:nonzero;stroke:none"
             d="M 0,0 C -1.895,1.832 -3.976,3.418 -6.244,4.761 -6.396,4.851 -6.534,4.614 -6.382,4.524 -4.135,3.195 -2.07,1.621 -0.193,-0.193 -0.066,-0.316 0.127,-0.123 0,0" /></g><g
           transform="translate(510.7915,1993.2563)"
           id="g180"><path
             id="path182"
             style="fill:#1e120d;fill-opacity:1;fill-rule:nonzero;stroke:none"
             d="m 0,0 c 14.075,-23.553 38.525,-39.742 63.337,-50.331 30.878,-13.176 64.83,-17.672 96.514,-28.623 31.624,-10.929 61.665,-25.903 91.581,-40.758 13.638,-6.772 27.519,-13.847 38.944,-24.074 11.452,-10.251 20.276,-22.936 27.959,-36.157 17.969,-30.923 28.944,-65.75 31.917,-101.392 0.702,-8.409 13.9,-8.499 13.216,0 -2.565,31.879 -10.853,62.964 -24.761,91.781 -13.903,28.806 -32.596,54.49 -60.525,70.912 -13.925,8.187 -28.724,14.978 -43.243,22.032 -15.183,7.377 -30.487,14.497 -46.083,20.964 -15.644,6.486 -31.57,12.162 -47.949,16.496 -16.84,4.457 -33.918,7.954 -50.81,12.201 C 57.131,-38.662 23.778,-27.31 4.092,2.392 2.42,4.914 -1.58,2.643 0,0" /></g><g
           transform="translate(859.0142,1741.8638)"
           id="g184"><path
             id="path186"
             style="fill:#1e120d;fill-opacity:1;fill-rule:nonzero;stroke:none"
             d="m 0,0 c -0.073,-6.389 1.719,-12.601 3.36,-18.74 1.267,-4.737 2.43,-11.108 6.547,-14.213 0.45,-0.34 1.145,0.025 1.272,0.517 1.25,4.859 -1.506,10.424 -2.881,15.058 C 6.538,-11.445 5.45,-5.297 3.043,0.412 2.406,1.925 0.022,1.889 0,0" /></g><g
           transform="translate(864.5903,1732.6948)"
           id="g188"><path
             id="path190"
             style="fill:#1e120d;fill-opacity:1;fill-rule:nonzero;stroke:none"
             d="m 0,0 c -1.439,-3.745 -0.606,-7.53 -0.085,-11.406 0.637,-4.742 1.039,-9.531 1.795,-14.243 1.407,-8.77 3.272,-17.463 5.734,-26.001 4.651,-16.128 12.325,-31.161 22.013,-44.817 8.942,-12.603 19.121,-24.264 28.194,-36.768 4.443,-6.122 8.625,-12.449 12.172,-19.137 1.869,-3.526 3.423,-7.178 5.639,-10.502 2.187,-3.279 4.691,-6.312 6.83,-9.625 0.928,-1.435 2.901,-0.767 3.058,0.829 0.816,8.316 0.217,15.274 -3.536,22.843 -3.354,6.764 -7.408,13.158 -11.759,19.319 -8.909,12.615 -19.083,24.27 -28.173,36.748 -9.97,13.687 -17.423,28.336 -23.415,44.149 -3.15,8.311 -5.702,16.806 -8.453,25.251 -1.471,4.513 -2.989,8.98 -4.321,13.547 C 4.621,-6.136 3.873,-2.505 1.143,0.302 0.755,0.699 0.177,0.461 0,0" /></g><g
           transform="translate(768.9897,1376.9785)"
           id="g192"><path
             id="path194"
             style="fill:#1e120d;fill-opacity:1;fill-rule:nonzero;stroke:none"
             d="m 0,0 c -3.894,1.084 -8.704,-2.251 -12.04,-4.088 -4.92,-2.709 -9.246,-6.397 -13.099,-10.468 -7.884,-8.33 -13.92,-18.435 -19.103,-28.603 -5.353,-10.501 -9.145,-21.225 -10.705,-32.936 -0.795,-5.976 -0.935,-11.908 -0.155,-17.895 0.798,-6.12 2.107,-9.514 7.357,-12.735 1.046,-0.642 2.36,-0.007 2.707,1.102 0.674,2.153 1.627,4.035 1.531,6.327 -0.109,2.611 -0.957,5.167 -1.27,7.754 -0.602,4.979 -0.536,10.162 0.214,15.118 1.588,10.506 5.955,20.816 10.82,30.185 4.601,8.862 9.718,17.676 16.041,25.429 2.968,3.639 6.297,6.952 9.635,10.247 2.826,2.791 7.678,5.14 8.995,8.928 C 1.165,-0.955 0.657,-0.183 0,0" /></g><g
           transform="translate(710.5596,1280.0913)"
           id="g196"><path
             id="path198"
             style="fill:#1e120d;fill-opacity:1;fill-rule:nonzero;stroke:none"
             d="m 0,0 c -5.116,2.622 -11.528,0.898 -16.474,-1.43 -5.907,-2.781 -8.528,-6.57 -10.47,-12.567 -0.599,-1.851 1.736,-2.814 3.009,-1.751 3.035,2.533 7.509,4.946 11.078,6.688 3.882,1.895 8.197,1.754 12.104,3.293 C 1.553,-4.859 2.644,-1.355 0,0" /></g><g
           transform="translate(387.0469,1670.9189)"
           id="g200"><path
             id="path202"
             style="fill:#1e120d;fill-opacity:1;fill-rule:nonzero;stroke:none"
             d="M 0,0 C 0.05,0 0.05,0.078 0,0.078 -0.05,0.078 -0.05,0 0,0" /></g><g
           transform="translate(393.7725,1681.0039)"
           id="g204"><path
             id="path206"
             style="fill:#1e120d;fill-opacity:1;fill-rule:nonzero;stroke:none"
             d="M 0,0 C 0.053,0 0.053,0.082 0,0.082 -0.053,0.082 -0.053,0 0,0" /></g><g
           transform="translate(622.6992,1673.771)"
           id="g208"><path
             id="path210"
             style="fill:#1e120d;fill-opacity:1;fill-rule:nonzero;stroke:none"
             d="m 0,0 c -1.395,-18.595 18.101,-32.303 34.212,-36.01 16.693,-3.841 37.52,0.268 47.929,14.944 4.211,5.935 5.916,14.084 3.701,21.085 3.465,-1.274 6.909,-2.603 10.308,-4.015 5.912,-2.455 10.901,-3.718 17.21,-2.02 0.981,0.265 1.85,1.527 1.426,2.551 -0.505,1.221 -1.076,2.32 -1.708,3.324 0.022,0.386 -0.001,0.774 -0.053,1.161 1.153,0.931 1.623,2.615 0.201,3.838 -6.829,5.872 -14.468,10.496 -22.752,13.835 -4.746,2.33 -9.704,4.173 -14.72,5.41 -2.665,0.657 -5.429,1.212 -8.224,1.636 -4.605,1.513 -9.344,2.599 -14.252,3.058 -9.32,0.872 -19.632,0.151 -28.462,-3.125 C 21.765,24.541 18.727,23.257 15.95,21.559 7.386,17.495 0.802,10.705 0,0" /></g><g
           transform="translate(910.8271,1629.2573)"
           id="g212"><path
             id="path214"
             style="fill:#1e120d;fill-opacity:1;fill-rule:nonzero;stroke:none"
             d="m 0,0 -55.576,-7.051 -24.765,89.573 90.883,7.142 z m -195.903,2.355 -81.105,-1.409 -37.207,91.331 147.404,-3.075 z m 104.437,119.634 -7.524,-29.604 -34.271,-0.183 -10.305,32.518 -225.746,6.828 -1.214,-36.604 c 0,0 -45.237,-4.528 -101.804,-10.48 -56.566,-5.951 -41.81,-43.525 -41.81,-43.525 16.558,16.175 170.738,20.924 170.738,20.924 l 39.248,-95.521 124.246,2.304 41.787,93.56 34.635,0.514 27.908,-93.485 97.789,8.18 9.538,97.521 22.695,1.323 -5.728,42.109 z" /></g><g
           transform="translate(732.2065,1779.834)"
           id="g216"><path
             id="path218"
             style="fill:#1e120d;fill-opacity:1;fill-rule:nonzero;stroke:none"
             d="m 0,0 c -3.152,-1.017 -5.859,-2.748 -9.171,-3.411 -2.994,-0.599 -6.17,-0.774 -9.222,-0.776 -6.96,-0.004 -13.91,1.786 -20.468,3.986 -14.319,4.805 -27.374,12.69 -41.275,18.51 -20.648,8.644 -53.413,14.385 -66.763,-8.907 -1.072,-1.87 1.079,-4.058 2.96,-2.959 10.369,6.057 22.84,8.683 34.758,7.933 13.589,-0.855 26.233,-6.294 38.454,-11.893 12.971,-5.942 26.339,-12.608 40.6,-14.712 10.06,-1.485 26.534,-0.738 31.981,9.816 C 2.475,-1.21 1.437,0.464 0,0" /></g><g
           transform="translate(589.1572,1788.687)"
           id="g220"><path
             id="path222"
             style="fill:#1e120d;fill-opacity:1;fill-rule:nonzero;stroke:none"
             d="m 0,0 c 9.229,8.77 20.41,11.09 32.86,10.793 14.107,-0.336 28.094,-3.114 41.314,-8.031 12.543,-4.666 23.685,-12.388 36.394,-16.635 5.562,-1.858 11.71,-3.094 17.593,-2.502 7.044,0.709 11.42,5.652 18.001,7.261 1.533,0.375 1.491,2.271 0.402,3.075 -5.041,3.722 -11.804,0.92 -17.474,0.255 -7.186,-0.843 -13.996,1 -20.624,3.659 C 94.808,3.353 82.033,10.085 67.59,13.463 53.979,16.646 39.441,18.104 25.521,16.383 15.165,15.102 3.121,11.484 -2.454,1.893 -3.354,0.343 -1.283,-1.219 0,0" /></g><g
           transform="translate(735.4673,1785.002)"
           id="g224"><path
             id="path226"
             style="fill:#1e120d;fill-opacity:1;fill-rule:nonzero;stroke:none"
             d="m 0,0 c -14.843,-9.903 -33.522,2.66 -46.908,9.547 -15.322,7.884 -30.775,16.229 -47.856,19.567 -14.089,2.753 -28.542,1.71 -41.794,-3.976 -11.815,-5.07 -23.583,-15.187 -21.79,-29.145 0.219,-1.703 1.918,-2.472 3.283,-1.36 9.389,7.656 18.411,16.187 30.252,19.892 14.176,4.435 28.597,2.785 42.558,-1.664 16.215,-5.167 30.905,-13.606 46.444,-20.358 12.456,-5.411 29.492,-8.098 38.059,5.25 C 3.118,-0.89 1.366,0.912 0,0" /></g><g
           transform="translate(583.1182,1788.9043)"
           id="g228"><path
             id="path230"
             style="fill:#1e120d;fill-opacity:1;fill-rule:nonzero;stroke:none"
             d="m 0,0 c 8.126,11.865 19.239,17.844 33.689,18.419 14.687,0.584 29.78,-2.593 43.729,-6.979 24.579,-7.729 50.537,-28.91 76.921,-15.153 -2.896,1.178 -5.792,2.356 -8.687,3.534 1.589,-7.519 -11.082,-12.456 -16.249,-14.379 -2.343,-0.871 -2.02,-4.269 0.597,-4.406 7.064,-0.37 14.316,-0.758 20.384,3.629 5.817,4.206 8.094,11.439 6.672,18.3 -0.814,3.93 -5.51,5.174 -8.687,3.534 -13.317,-6.875 -28.292,-0.97 -41.048,4.279 C 93.343,16.529 79.375,21.622 64.352,23.895 50.275,26.026 34.976,27.271 21.224,22.738 11.076,19.394 0.111,12.013 -2.489,1.05 -2.854,-0.489 -0.866,-1.265 0,0" /></g><g
           transform="translate(900.7246,1803.0117)"
           id="g232"><path
             id="path234"
             style="fill:#1e120d;fill-opacity:1;fill-rule:nonzero;stroke:none"
             d="m 0,0 c 0.014,7.653 -8.7,15.697 -14.235,20.06 -7.095,5.593 -15.511,9.587 -24.456,11.068 -18.598,3.079 -36.557,-3.665 -47.281,-19.223 -1.054,-1.53 1.149,-2.851 2.391,-1.844 11.99,9.714 29.573,15.851 44.979,13.061 7.634,-1.383 14.916,-4.743 20.979,-9.577 2.692,-2.146 5.184,-4.623 7.413,-7.242 2.334,-2.741 3.925,-6.108 6.895,-8.205 C -1.913,-2.894 -0.003,-1.56 0,0" /></g><g
           transform="translate(899.2349,1801.4209)"
           id="g236"><path
             id="path238"
             style="fill:#1e120d;fill-opacity:1;fill-rule:nonzero;stroke:none"
             d="m 0,0 c -1.421,8.469 -14.048,14.904 -21.06,18.133 -9.063,4.172 -18.582,6.76 -28.511,7.728 -9.615,0.937 -19.452,0.228 -28.86,-1.96 -8.749,-2.034 -19.407,-5.653 -24.019,-13.956 -1.063,-1.913 0.259,-4.521 2.559,-4.461 8.254,0.215 16.052,4.398 23.995,6.362 8.376,2.071 16.963,2.736 25.566,2.072 8.283,-0.64 16.604,-2.568 24.276,-5.769 3.974,-1.658 7.81,-3.743 11.519,-5.928 C -10.92,0.093 -6.536,-3.241 -2.164,-2.84 -0.608,-2.697 0.256,-1.528 0,0" /></g><g
           transform="translate(802.5952,1810.1372)"
           id="g240"><path
             id="path242"
             style="fill:#1e120d;fill-opacity:1;fill-rule:nonzero;stroke:none"
             d="m 0,0 c 11.968,13.794 32.596,16.593 49.724,12.602 7.844,-1.828 15.352,-5.05 21.993,-9.613 6.464,-4.442 12.008,-10.764 19.185,-14.061 1.128,-0.518 2.726,0.071 2.653,1.522 C 93.066,0.039 84.846,7.65 77.354,12.633 68.729,18.369 58.955,21.926 48.644,22.907 38.396,23.882 27.305,21.92 17.765,18.132 10.563,15.273 -1.616,9.892 -2.599,1.076 -2.743,-0.223 -0.825,-0.951 0,0" /></g><g
           transform="translate(894.3164,1811.9248)"
           id="g244"><path
             id="path246"
             style="fill:#1e120d;fill-opacity:1;fill-rule:nonzero;stroke:none"
             d="m 0,0 c -7.334,11.735 -22.166,21.048 -35.416,24.481 -15.009,3.889 -31.42,2.248 -45.538,-4.002 -6.464,-2.861 -14.379,-6.757 -17.862,-13.221 -2.766,-5.13 -1.556,-9.05 4.592,-7.052 7.165,2.327 12.979,7.612 19.976,10.51 7.395,3.062 15.263,4.919 23.28,5.057 8.44,0.146 17.183,-1.467 25.152,-4.229 C -16.947,8.47 -9.935,3.008 -2.521,-2.521 -1.008,-3.649 0.926,-1.482 0,0" /></g><g
           transform="translate(802.7104,1821.3989)"
           id="g248"><path
             id="path250"
             style="fill:#1e120d;fill-opacity:1;fill-rule:nonzero;stroke:none"
             d="m 0,0 c -5.715,-2.661 -9.365,-6.951 -13.062,-12.026 -3.379,-4.641 -7.025,-10.157 -7.321,-16.064 -0.047,-0.947 1.211,-1.413 1.847,-0.765 3.821,3.894 6.127,9.236 9.163,13.736 3.329,4.934 7.257,9.148 10.141,14.351 C 1.055,-0.249 0.494,0.229 0,0" /></g><g
           transform="translate(788.5264,1801.0498)"
           id="g252"><path
             id="path254"
             style="fill:#1e120d;fill-opacity:1;fill-rule:nonzero;stroke:none"
             d="m 0,0 c 3.043,1.018 5.141,3.561 7.703,5.419 2.963,2.151 6.167,3.94 9.48,5.49 3.615,1.69 7.345,3.011 11.246,3.873 3.192,0.706 6.59,0.522 9.418,2.273 0.881,0.545 1.046,2.058 0,2.56 C 31.714,22.559 21.919,18.373 16.173,15.732 10.474,13.112 0.583,7.578 -1.035,1.035 -1.181,0.444 -0.63,-0.211 0,0" /></g><g
           transform="translate(825.9023,1821.0791)"
           id="g256"><path
             id="path258"
             style="fill:#1e120d;fill-opacity:1;fill-rule:nonzero;stroke:none"
             d="m 0,0 c -8.472,2.834 -20.095,-1.99 -27.324,-6.281 -4.313,-2.56 -7.996,-5.656 -11.164,-9.546 -2.393,-2.938 -6.372,-7.536 -4.712,-11.553 0.391,-0.944 1.128,-1.418 2.169,-1.231 3.555,0.642 5.639,4.94 7.873,7.453 2.963,3.332 6.396,6.56 9.996,9.196 3.417,2.501 7.183,4.513 11.102,6.102 4.017,1.627 8.393,2.077 12.328,3.81 C 1.22,-1.63 0.823,-0.275 0,0" /></g><g
           transform="translate(820.6206,1819.6553)"
           id="g260"><path
             id="path262"
             style="fill:#1e120d;fill-opacity:1;fill-rule:nonzero;stroke:none"
             d="m 0,0 c -6.48,0.138 -14.132,-6.188 -19.265,-9.734 -6.001,-4.145 -12.285,-8.621 -16.033,-15.001 -0.802,-1.364 0.765,-2.761 2.082,-2.083 6.671,3.433 12.117,8.931 18.178,13.3 2.839,2.047 5.78,3.934 8.691,5.875 2.617,1.745 5.639,3.18 7.385,5.835 C 1.555,-1.022 0.868,-0.019 0,0" /></g><g
           transform="translate(820.7612,1821.8833)"
           id="g264"><path
             id="path266"
             style="fill:#1e120d;fill-opacity:1;fill-rule:nonzero;stroke:none"
             d="m 0,0 c -7.824,-0.05 -15.738,-4.282 -22.079,-8.607 -5.892,-4.018 -13.208,-9.741 -15.089,-16.938 -0.257,-0.983 0.858,-1.929 1.766,-1.357 6.106,3.847 10.587,10.126 16.516,14.351 6.122,4.363 13.026,6.681 19.472,10.386 C 1.583,-1.591 1.151,0.008 0,0" /></g><g
           transform="translate(808.5508,1814.4858)"
           id="g268"><path
             id="path270"
             style="fill:#1e120d;fill-opacity:1;fill-rule:nonzero;stroke:none"
             d="M 0,0 C 0.055,0 0.055,0.085 0,0.085 -0.055,0.085 -0.055,0 0,0" /></g><g
           transform="translate(884.77,1817.2739)"
           id="g272"><path
             id="path274"
             style="fill:#1e120d;fill-opacity:1;fill-rule:nonzero;stroke:none"
             d="m 0,0 c 6.541,-3.69 8.875,-9.104 8.089,-16.38 2.531,1.048 5.062,2.097 7.593,3.145 C 2.434,-2.849 -12.293,7.203 -29.34,9.546 c -18.182,2.5 -35.866,-3.867 -51.431,-12.817 -3.978,-2.287 -7.839,-4.755 -11.637,-7.326 -1.773,-1.201 -3.535,-2.419 -5.293,-3.643 -0.385,-0.268 -2.662,-1.513 -3.007,-2.102 -0.963,-1.65 -3.01,0.951 0.61,-2.41 2.53,-2.349 1.653,-1.903 2.543,0.323 0.264,0.66 0.547,1.305 0.849,1.95 0.814,1.734 1.754,3.417 2.769,5.041 2.036,3.254 4.481,6.179 7.222,8.861 10.898,10.667 26.034,16.064 41.197,15.025 8.695,-0.595 17.283,-3.561 25.112,-7.274 8.452,-4.01 17.114,-9.021 23.78,-15.625 1.409,-1.395 3.811,0.396 2.769,2.136 -4.695,7.839 -9.821,14.79 -17.149,20.331 -7.276,5.5 -15.6,9.131 -24.53,10.954 -17.433,3.56 -35.761,0.275 -50.484,-9.889 -7.174,-4.953 -13.397,-11.199 -18.022,-18.611 -3.533,-5.662 -10.417,-17.405 -2.183,-22.155 7.892,-4.552 17.611,5.477 23.619,9.399 9.169,5.986 18.674,11.562 29.216,14.752 11.418,3.456 23.007,4.088 34.379,0.119 10.733,-3.747 19.903,-10.62 29.303,-16.805 2.916,-1.919 6.613,0.633 6.692,3.84 C 17.205,-7.392 10.33,1.637 1.574,3.734 -0.629,4.262 -2.072,1.169 0,0" /></g></g></g><g
       id="g276"><g
         clip-path="url(#clipPath282)"
         id="g278"><g
           transform="translate(639.7993,1678.376)"
           id="g284"><path
             id="path286"
             style="fill:#ffffff;fill-opacity:1;fill-rule:nonzero;stroke:none"
             d="M 0,0 C -0.494,-5.695 4.24,-10.758 10.575,-11.309 16.91,-11.858 22.446,-7.687 22.94,-1.992 23.435,3.704 18.701,8.766 12.366,9.316 6.031,9.867 0.495,5.695 0,0" /></g></g></g><g
       id="g288"><g
         clip-path="url(#clipPath294)"
         id="g290"><g
           transform="translate(855.647,1648.666)"
           id="g296"><path
             id="path298"
             style="fill:#1e120d;fill-opacity:1;fill-rule:nonzero;stroke:none"
             d="m 0,0 c 12.696,-4.133 28.943,-1.647 38.03,8.78 4.31,4.946 6.64,11.48 5.993,18.062 -0.145,1.473 -0.465,2.804 -0.948,3.996 1.937,-1.012 3.845,-2.134 5.789,-3.325 3.583,-2.194 12.102,-8.701 15.446,-6.056 0.808,-0.463 7.848,0.445 3.763,1.489 -1.136,0.291 -2.583,1.765 -2.768,3.128 -0.394,2.902 3.646,1.261 1.253,3.45 -0.02,0.032 1.882,0.78 1.862,0.811 1.205,4.527 -12.999,11.481 -18.161,13.65 C 41.436,49.88 30.025,52.6 20,51.952 9.675,51.284 -2.615,47.502 -10.647,39.97 c -2.102,-1.762 -3.881,-3.88 -5.172,-6.443 -0.348,-0.599 -0.679,-1.21 -0.977,-1.841 C -23.645,17.208 -13.653,4.444 0,0" /></g></g></g><g
       id="g300"><g
         clip-path="url(#clipPath306)"
         id="g302"><g
           transform="translate(850.2578,1678.376)"
           id="g308"><path
             id="path310"
             style="fill:#ffffff;fill-opacity:1;fill-rule:nonzero;stroke:none"
             d="m 0,0 c -0.495,-5.695 4.24,-10.758 10.574,-11.309 6.335,-0.549 11.871,3.622 12.366,9.317 C 23.435,3.704 18.7,8.766 12.365,9.316 6.031,9.867 0.494,5.695 0,0" /></g></g></g><g
       id="g312"><g
         clip-path="url(#clipPath318)"
         id="g314"><g
           transform="translate(279.1084,573.8916)"
           id="g320"><path
             id="path322"
             style="fill:#1e120d;fill-opacity:1;fill-rule:nonzero;stroke:none"
             d="M 0,0 C 0.828,0 0.829,1.286 0,1.286 -0.827,1.286 -0.829,0 0,0" /></g><g
           transform="translate(627.2158,713.2285)"
           id="g324"><path
             id="path326"
             style="fill:#ff8400;fill-opacity:1;fill-rule:nonzero;stroke:none"
             d="m 0,0 c 0,0 -91.7,-90.569 -91.85,-132.038 -0.15,-41.469 46.199,-59.611 -27.817,-76.67 -74.016,-17.06 -180.434,-12.558 -204.941,26.585 -24.507,39.144 -69.934,102.587 -44.554,105.952 25.382,3.365 197.865,-88.145 213.921,-55.581 54.765,111.071 89.72,161.273 89.72,161.273 z" /></g><g
           transform="translate(559.4521,744.9912)"
           id="g328"><path
             id="path330"
             style="fill:#1e120d;fill-opacity:1;fill-rule:nonzero;stroke:none"
             d="m 0,0 c -11.705,-10.569 -21.632,-21.766 -29.638,-35.391 -7.699,-13.102 -14.341,-26.769 -20.43,-40.684 -10.305,-23.551 -17.978,-49.211 -31.611,-71.142 -2.258,-3.633 -4.565,-6.879 -7.687,-9.809 -1.56,-1.465 -1.671,-1.554 -3.532,-2.683 -0.322,-0.194 -2.176,-1.116 -1.16,-0.676 -1.99,-0.862 -4.225,-1.356 -6.34,-1.796 -20.702,-4.298 -43.127,5.221 -62.519,11.426 -20.943,6.701 -41.698,13.988 -62.235,21.847 -10.119,3.872 -20.186,7.884 -30.195,12.034 -9.357,3.88 -18.806,9.123 -28.674,11.559 -8.432,2.082 -17.648,1.094 -23.442,-6.013 -5.04,-6.184 -5.068,-14.504 -2.882,-21.845 2.572,-8.639 7.505,-16.031 12.27,-23.572 6.079,-9.619 12.166,-19.234 18.261,-28.843 10.205,-16.088 19.939,-33.421 34.397,-46.161 14.895,-13.126 33.645,-18.711 53.089,-20.643 43.292,-4.299 88.247,-0.716 131.058,6.259 10.745,1.751 21.441,3.805 32.07,6.158 8.218,1.82 17.758,3.398 24.011,9.586 8.154,8.071 5.287,17.832 1.712,27.308 -3.656,9.691 -6.26,19.882 -6.69,30.263 -0.304,7.307 0.24,14.797 2.547,21.776 1.372,4.149 2.188,5.833 3.896,9.576 5.042,11.044 10.868,21.729 16.986,32.207 13.353,22.87 28.219,46.155 47.763,64.29 1.781,1.654 3.459,3.23 5.068,5.049 0.803,0.908 1.652,1.766 2.49,2.642 0.349,0.365 0.739,0.689 1.095,1.047 0.793,0.796 2.054,1.345 0.422,0.471 5.254,2.815 0.583,10.81 -4.673,7.994 2.056,1.101 -0.895,-0.158 -1.703,-0.421 -0.98,-0.32 -1.931,-0.742 -2.882,-1.137 -3.045,-1.266 -5.515,-2.646 -8.085,-4.738 C 48.418,-37.594 44.5,-41.565 40.769,-45.727 31.726,-55.81 23.657,-66.805 16.096,-78.029 2.851,-97.692 -9.677,-118.54 -19.019,-140.382 c -5.496,-12.848 -7.056,-26.514 -5.331,-40.423 1.231,-9.926 3.802,-19.436 7.398,-28.758 1.19,-3.083 3.838,-7.374 1.125,-10.188 -2.36,-2.448 -6.753,-3.197 -9.893,-3.958 -41.557,-10.073 -84.77,-14.636 -127.487,-14.888 -19.399,-0.115 -39.869,-0.455 -58.736,4.674 -18.304,4.975 -30.893,17.049 -41.482,32.288 -11.658,16.778 -22.316,34.306 -33.412,51.458 -4.592,7.097 -10.386,14.463 -11.74,23.053 -1.31,8.317 4.353,11.072 11.838,9.09 9.299,-2.464 18.192,-7.304 27.061,-10.979 9.715,-4.024 19.483,-7.921 29.303,-11.683 19.936,-7.641 40.077,-14.743 60.397,-21.294 19.321,-6.229 39.928,-14.071 60.522,-13.631 12.013,0.257 23.177,3.184 31.232,12.367 6.631,7.56 11.26,16.685 15.415,25.768 5.413,11.831 10.091,23.989 14.911,36.068 5.4,13.532 10.799,27.055 17.082,40.209 6.49,13.588 14.242,26.31 22.33,38.985 3.992,6.257 7.983,12.211 12.971,17.739 C 7.225,-1.449 3.037,2.743 0,0" /></g><g
           transform="translate(272.7085,577.1816)"
           id="g332"><path
             id="path334"
             style="fill:#1e120d;fill-opacity:1;fill-rule:nonzero;stroke:none"
             d="M 0,0 C 1.143,0 2.344,0.497 3.152,1.306 3.925,2.078 4.507,3.347 4.458,4.457 4.35,6.872 2.499,8.915 0,8.915 -1.143,8.915 -2.343,8.417 -3.152,7.609 -3.925,6.836 -4.507,5.567 -4.458,4.457 -4.349,2.042 -2.499,0 0,0" /></g><g
           transform="translate(529.0674,755.5762)"
           id="g336"><path
             id="path338"
             style="fill:#1e120d;fill-opacity:1;fill-rule:nonzero;stroke:none"
             d="m 0,0 c 5.16,-11.754 19.69,-16.726 31.463,-18.052 6.381,-0.719 12.995,-0.137 19.206,1.47 5.023,1.3 12.266,4.213 13.286,10.039 0.122,0.696 -0.18,1.36 -0.896,1.577 -4.602,1.399 -9.844,-0.997 -14.267,-2.2 C 43.343,-8.648 37.778,-9.001 32.157,-8.619 20.888,-7.853 11.662,-2.258 1.524,1.982 0.297,2.496 -0.405,0.923 0,0" /></g><g
           transform="translate(568.8418,739.7129)"
           id="g340"><path
             id="path342"
             style="fill:#1e120d;fill-opacity:1;fill-rule:nonzero;stroke:none"
             d="m 0,0 c -8.435,-12.144 32.38,-26.25 41.342,-18.04 6.15,5.633 -9.167,6.824 -11.835,7.192 -5.129,0.709 -10.318,2.148 -15,4.365 C 10.563,-4.616 5.522,-2.458 2.127,0.273 1.413,0.849 0.536,0.771 0,0" /></g><g
           transform="translate(603.6133,737.8271)"
           id="g344"><path
             id="path346"
             style="fill:#1e120d;fill-opacity:1;fill-rule:nonzero;stroke:none"
             d="m 0,0 c -6.001,-10.827 12.174,-22.759 20.178,-26.605 11.5,-5.527 26.782,-9.649 38.035,-1.908 1.046,0.72 0.916,2.323 -0.355,2.714 -10.456,3.225 -21.67,3.006 -31.802,7.653 -4.81,2.207 -9.566,5.084 -13.423,8.729 C 9.042,-6.022 7.121,-1.469 2.586,0.679 1.68,1.107 0.529,0.955 0,0" /></g><g
           transform="translate(1291.8682,1299.772)"
           id="g348"><path
             id="path350"
             style="fill:#ffea30;fill-opacity:1;fill-rule:nonzero;stroke:none"
             d="M 0,0 C -0.047,0 -0.047,-0.072 0,-0.072 0.046,-0.072 0.046,0 0,0" /></g><g
           transform="translate(691.8794,1016.1973)"
           id="g352"><path
             id="path354"
             style="fill:#ffea30;fill-opacity:1;fill-rule:nonzero;stroke:none"
             d="m 0,0 0.74,-2.548 c -6.198,5.965 -33.855,14.86 -31.073,20.205 3.887,7.471 -2.125,14.592 -6.632,8.213 -0.195,8.099 -32.733,-15.863 -32.927,-7.766 0.265,11.284 0.504,22.572 0.359,33.852 0.407,1.199 0.804,2.395 1.2,3.573 2.131,6.354 3.669,12.81 3.525,19.409 -5.89,-9.914 -14.088,-18.676 -23.013,-25.376 -4.439,-3.333 -9.128,-6.295 -13.683,-9.427 -0.539,-0.865 -1.104,-1.72 -1.71,-2.561 -2.498,-2.641 -4.996,-5.285 -7.494,-7.928 -1.27,-1.032 -2.584,-1.967 -3.93,-2.836 -3.834,-5.649 -9.989,-9.698 -16.518,-12.384 -3.39,-5.557 -6.534,-11.251 -9.494,-17.05 -5.134,2.822 -12,2.768 -15.284,-2.488 -4.481,-7.169 -8.946,-14.349 -13.411,-21.53 -4.639,3.663 -11.589,4.176 -16.369,-1.563 -2.267,-2.722 -4.286,-5.582 -6.108,-8.548 -2.427,0.962 -5.222,1.02 -8.134,-0.314 -14.734,-6.751 -28.024,-15.895 -41.524,-24.713 -1.746,0.193 -3.646,-0.012 -5.67,-0.768 -25.749,-9.609 -50.836,-20.672 -75.26,-33.047 -8.46,-2.414 -16.808,-5.166 -24.973,-8.477 -30.477,-12.365 -58.155,-32.229 -72.929,-62.024 -3.285,-6.625 1.209,-13.487 7.259,-15.903 -7.685,-10.693 -13.692,-22.527 -17.074,-35.855 -2.288,-9.013 -1.08,-20.055 6.999,-26.276 1.829,-1.408 3.817,-2.39 5.873,-3.016 0.351,-9.579 4.076,-18.818 12.54,-25.308 5.678,-4.352 15.975,-3.186 18.347,4.267 4.521,14.202 11.431,27.14 20.997,38.528 8.734,10.399 19.251,18.023 30.665,25.32 4.515,2.886 8.721,6.035 12.616,9.582 3.154,-3.453 8.945,-4.719 13.078,-3.086 -2.874,-6.075 -4.853,-12.521 -5.26,-19.449 -0.507,-8.604 0.526,-18.788 6.277,-25.878 4.253,-5.243 11.546,-6.931 17.591,-4.472 4.623,1.88 7.211,5.868 9.635,9.944 8.223,13.825 16.298,27.747 25.415,41.007 8.808,12.809 18.541,25.325 30.27,35.628 4.727,4.152 9.946,7.724 14.823,11.688 3.928,-0.43 7.989,1.046 10.458,4.216 0.524,0.672 3.453,-3.638 3.972,-2.962 1.99,-1.147 1.884,3.306 4.367,3.699 10.652,1.686 21.093,-2.561 30.573,2.411 4.67,2.449 15.741,-2.168 15.076,3.469 -0.287,2.434 22.717,4.527 20.933,6.505 17.166,17.038 33.882,-6.588 42.767,16.351 0.025,0.063 10.162,8.757 10.186,8.82 -0.797,1.719 68.629,74.729 65.956,78.611 3.44,10.277 19.463,18.665 12.4,24.777 C 61.691,4.61 0.003,-0.135 0,0" /></g><g
           transform="translate(691.8794,1016.1973)"
           id="g356"><path
             id="path358"
             style="fill:#ffea30;fill-opacity:1;fill-rule:nonzero;stroke:none"
             d="m 0,0 0.74,-2.548 c -6.198,5.965 -33.855,14.86 -31.073,20.205 3.887,7.471 -2.125,14.592 -6.632,8.213 -0.195,8.099 -32.733,-15.863 -32.927,-7.766 0.265,11.284 0.504,22.572 0.359,33.852 0.407,1.199 0.804,2.395 1.2,3.573 0.739,2.204 1.394,4.423 1.946,6.655 -7.174,-4.602 -14.423,-9.094 -20.812,-14.704 -0.47,-0.613 -0.927,-1.237 -1.371,-1.87 -7.084,-17.02 -22.755,-26.779 -39.834,-26.899 -0.222,-0.263 -0.432,-0.538 -0.619,-0.833 -4.231,-6.634 -8.053,-13.498 -11.627,-20.502 -5.134,2.822 -12,2.768 -15.284,-2.488 -4.481,-7.169 -8.946,-14.349 -13.411,-21.53 -4.639,3.663 -11.589,4.176 -16.369,-1.563 -2.267,-2.722 -4.286,-5.582 -6.108,-8.548 -2.427,0.962 -5.222,1.02 -8.134,-0.314 -14.734,-6.751 -28.024,-15.895 -41.524,-24.713 -1.746,0.193 -3.646,-0.012 -5.67,-0.768 -25.749,-9.609 -50.836,-20.672 -75.26,-33.047 -8.46,-2.414 -16.808,-5.166 -24.973,-8.477 -30.477,-12.365 -58.155,-32.229 -72.929,-62.024 -3.285,-6.625 1.209,-13.487 7.259,-15.903 -7.685,-10.693 -13.692,-22.527 -17.074,-35.855 -2.288,-9.013 -1.08,-20.055 6.999,-26.276 1.829,-1.408 3.817,-2.39 5.873,-3.016 0.351,-9.579 4.076,-18.818 12.54,-25.308 5.678,-4.352 15.975,-3.186 18.347,4.267 4.521,14.202 11.431,27.14 20.997,38.528 8.734,10.399 19.251,18.023 30.665,25.32 4.515,2.886 8.721,6.035 12.616,9.582 3.154,-3.453 8.945,-4.719 13.078,-3.086 -2.874,-6.075 -4.853,-12.521 -5.26,-19.449 -0.507,-8.604 0.526,-18.788 6.277,-25.878 4.253,-5.243 11.546,-6.931 17.591,-4.472 4.623,1.88 7.211,5.868 9.635,9.944 8.223,13.825 16.298,27.747 25.415,41.007 8.808,12.809 18.541,25.325 30.27,35.628 4.727,4.152 9.946,7.724 14.823,11.688 3.928,-0.43 7.989,1.046 10.458,4.216 0.524,0.672 3.453,-3.638 3.972,-2.962 1.99,-1.147 1.884,3.306 4.367,3.699 10.652,1.686 21.093,-2.561 30.573,2.411 4.67,2.449 15.741,-2.168 15.076,3.469 -0.287,2.434 22.717,4.527 20.933,6.505 17.166,17.038 33.882,-6.588 42.767,16.351 0.025,0.063 10.162,8.757 10.186,8.82 -0.797,1.719 68.629,74.729 65.956,78.611 3.44,10.277 19.463,18.665 12.4,24.777 C 61.691,4.61 0.003,-0.135 0,0" /></g><g
           transform="translate(684.6528,991.5137)"
           id="g360"><path
             id="path362"
             style="fill:#1e120d;fill-opacity:1;fill-rule:nonzero;stroke:none"
             d="m 0,0 c -5.582,-9.552 -11.285,-20.138 -18.78,-28.32 -9.132,-9.97 -19.286,-19.311 -29.317,-28.367 -17.041,-15.383 -36.093,-30.921 -57.117,-40.552 -32.264,-14.781 -68.458,-16.939 -102.009,-27.557 -16.405,-5.192 -30.845,-12.568 -41.392,-26.499 -9.91,-13.09 -15.592,-28.684 -22.585,-43.388 -2.357,-4.954 -4.789,-9.871 -7.298,-14.75 -1.978,-3.845 -3.773,-8.661 -6.686,-11.919 -3.712,-4.152 -10.28,-0.929 -13.062,2.895 -4.859,6.682 -3.394,16.451 -1.548,23.882 2.502,10.076 4.862,18.686 2.066,29.012 -0.762,2.816 -4.959,3.523 -6.385,0.834 -8.383,-15.796 -16.753,-33.83 -12.202,-52.242 3.722,-15.055 20.198,-27.707 35.886,-21.591 8.956,3.492 12.862,12.315 16.996,20.324 4.634,8.977 8.982,18.092 13.129,27.304 6.929,15.39 13.636,31.039 27.092,41.923 13.734,11.108 33.778,14.191 50.505,18.042 18.709,4.308 37.593,8.154 55.768,14.45 26.022,9.017 47.815,24.616 68.346,42.706 12.443,10.964 23.891,22.589 33.532,36.116 7.898,11.081 17.389,21.983 19.488,35.83 C 4.814,0.687 1.489,2.549 0,0" /></g><g
           transform="translate(386.4727,829.3242)"
           id="g364"><path
             id="path366"
             style="fill:#1e120d;fill-opacity:1;fill-rule:nonzero;stroke:none"
             d="m 0,0 c -5.926,-0.527 -9.883,-2.545 -15.073,-5.54 -5.458,-3.149 -11.064,-6.033 -16.614,-9.014 -9.94,-5.336 -19.694,-11.074 -28.129,-18.639 -7.653,-6.864 -13.902,-15.325 -17.301,-25.079 -3.405,-9.771 -4.258,-23.257 -13.072,-30.219 -1.756,-1.387 -0.22,-4.202 1.746,-4.215 11.471,-0.072 16.642,8.892 19.357,18.95 1.518,5.624 2.471,11.384 5.141,16.621 2.47,4.845 5.799,9.093 9.649,12.913 8.048,7.985 17.899,13.649 27.821,18.967 5.29,2.836 10.637,5.568 15.86,8.527 5.849,3.313 10.404,6.081 13.149,12.312 C 3.334,-2.6 2.456,0.218 0,0" /></g><g
           transform="translate(307.4692,747.832)"
           id="g368"><path
             id="path370"
             style="fill:#1e120d;fill-opacity:1;fill-rule:nonzero;stroke:none"
             d="m 0,0 c -0.552,-0.121 -2.419,-1.183 -1.378,-0.765 -1.482,-0.595 -3.264,-0.816 -4.813,-1.318 -3.408,-1.104 -6.193,-2.508 -9.455,-0.019 -3.244,2.475 -5.032,6.98 -6.43,10.653 -1.799,4.732 -3.411,9.641 -2.629,14.767 1.512,9.914 8.361,19.411 12.909,28.161 5.153,9.918 9.59,20.19 13.151,30.791 1.222,3.637 -3.733,4.993 -5.704,2.405 -8.999,-11.818 -16.209,-24.574 -23.194,-37.645 -6.46,-12.088 -11.733,-23.702 -7.488,-37.518 3.041,-9.896 8.382,-22.243 19.674,-24.63 4.599,-0.973 10.707,-0.268 14.339,2.99 2.789,2.501 5.037,7.971 2.807,11.399 C 1.386,-0.109 0.715,0.157 0,0" /></g><g
           transform="translate(277.2046,767.8887)"
           id="g372"><path
             id="path374"
             style="fill:#1e120d;fill-opacity:1;fill-rule:nonzero;stroke:none"
             d="m 0,0 c -0.67,0.927 -1.534,2.889 -2.542,4.217 -1.302,1.714 -2.544,3.565 -3.589,5.449 -2.085,3.761 -3.208,8.132 -3.437,12.416 -0.536,10.004 2.757,18.884 8.155,27.213 6.22,9.598 14.427,17.827 22.078,26.27 8.845,9.76 16.458,19.67 23.517,30.793 1.691,2.663 -1.897,4.754 -4.024,3.105 C 34.111,104.772 27.989,100.151 22.52,94.786 17.33,89.693 12.573,84.095 7.665,78.73 -0.79,69.49 -9.684,60.126 -15.433,48.876 c -4.95,-9.685 -7.264,-20.223 -5.28,-31.011 0.877,-4.768 2.634,-9.555 5.23,-13.666 1.419,-2.248 3.051,-4.274 5.093,-5.977 2.403,-2.003 3.868,-2.201 6.655,-3.08 C -1.136,-5.679 1.712,-2.368 0,0" /></g><g
           transform="translate(280.2778,842.2627)"
           id="g376"><path
             id="path378"
             style="fill:#1e120d;fill-opacity:1;fill-rule:nonzero;stroke:none"
             d="m 0,0 c -1.69,-1.779 -3.256,-3.724 -5.791,-3.303 -2.812,0.467 -2.195,2.965 -1.734,5.285 0.841,4.235 2.52,8.188 4.721,11.88 3.871,6.496 8.26,12.249 13.32,17.851 11.117,12.309 24.156,21.306 38.968,28.704 16.143,8.064 33.019,14.621 49.674,21.528 17.597,7.298 35.209,14.562 52.786,21.907 33.757,14.106 67.368,28.726 99.591,46.11 15.907,8.582 30.524,19.185 44.562,30.531 27,21.823 51.478,46.37 74.677,72.151 6.144,6.826 -3.678,16.828 -10.145,10.144 -36.942,-38.179 -76.132,-76.714 -123,-102.602 C 202.525,140.796 165.843,124.807 128.984,109.107 110.227,101.118 91.463,93.141 72.71,85.139 55.428,77.764 38.141,70.092 22.917,58.914 8.361,48.228 -4.972,34.76 -10.078,16.93 -11.841,10.774 -16.096,0.195 -12.122,-5.86 -7.528,-12.858 -0.118,-7.419 3,-2.314 4.124,-0.476 1.503,1.583 0,0" /></g><g
           id="g380"><g
             id="g382" /><g
             id="g394"><g
               style="opacity:0.80000299"
               id="g392"
               clip-path="url(#clipPath386)"><g
                 id="g390"
                 transform="translate(596.6118,1721.5347)"><path
                   id="path388"
                   style="fill:#1e120d;fill-opacity:1;fill-rule:nonzero;stroke:none"
                   d="m 0,0 37.207,-91.332 81.105,1.41 29.092,86.847 z" /></g></g></g></g><g
           id="g396"><g
             id="g398" /><g
             id="g410"><g
               style="opacity:0.80000299"
               id="g408"
               clip-path="url(#clipPath402)"><g
                 id="g406"
                 transform="translate(830.4858,1711.7793)"><path
                   id="path404"
                   style="fill:#1e120d;fill-opacity:1;fill-rule:nonzero;stroke:none"
                   d="m 0,0 24.765,-89.573 55.576,7.051 10.543,89.664 z" /></g></g></g></g><g
           transform="translate(1082.4653,1219.7886)"
           id="g412"><path
             id="path414"
             style="fill:#1e120d;fill-opacity:1;fill-rule:nonzero;stroke:none"
             d="m 0,0 c 10.999,-2.151 22.262,3.194 33.483,2.27 4.577,-0.377 9.061,-1.705 12.839,-4.377 3.782,-2.675 5.142,-7.103 8.861,-9.67 2.739,-1.89 7.308,-0.05 7.942,3.231 C 65.348,2.965 49.793,11.809 40.395,13.861 33.612,15.343 26.766,15.065 19.933,14.145 12.915,13.2 4.967,12.465 -1.126,8.62 -4.313,6.608 -4.185,0.819 0,0" /></g><g
           transform="translate(1145.5522,1209.5591)"
           id="g416"><path
             id="path418"
             style="fill:#1e120d;fill-opacity:1;fill-rule:nonzero;stroke:none"
             d="m 0,0 c 10.034,4.751 13.308,17.894 11.895,28.093 -1.643,11.862 -7.913,22.986 -16.878,30.903 -9.195,8.118 -20.931,12.959 -33.312,11.772 -13.97,-1.34 -29.193,-5.916 -39.093,-16.26 -1.507,-1.574 -0.021,-4.437 2.189,-3.761 10.665,3.265 21.897,5.365 32.858,7.394 10.144,1.877 19.565,-0.137 27.546,-6.859 C -8.001,45.56 -2.953,37.692 -0.87,29.042 1.286,20.09 0.297,12.091 -4.04,4.041 -5.507,1.318 -2.624,-1.242 0,0" /></g><g
           transform="translate(1107.0337,1274.0518)"
           id="g420"><path
             id="path422"
             style="fill:#1e120d;fill-opacity:1;fill-rule:nonzero;stroke:none"
             d="m 0,0 c -1.831,8.623 -13.044,15.015 -20.404,18.217 -10.027,4.362 -21.308,6.348 -32.242,5.722 -21.613,-1.237 -44.956,-9.497 -59.378,-26.119 -1.273,-1.467 -0.088,-4.092 2.007,-3.447 18.418,5.669 35.236,16.104 54.763,17.921 9.685,0.902 19.322,0.602 28.774,-1.864 4.369,-1.14 8.685,-2.728 12.71,-4.781 C -9.682,3.565 -6.487,0.156 -2.479,-1.906 -1.137,-2.596 0.311,-1.463 0,0" /></g><g
           transform="translate(925.5996,1262.3149)"
           id="g424"><path
             id="path426"
             style="fill:#1e120d;fill-opacity:1;fill-rule:nonzero;stroke:none"
             d="m 0,0 c 4.116,-1.724 10.443,2.643 14.314,4.269 5.409,2.271 10.825,4.533 16.192,6.903 11.579,5.113 22.915,10.688 34.385,16.036 10.304,4.805 21.619,11.559 33.277,11.618 5.154,0.027 10.321,-1.168 14.928,-3.489 4.551,-2.293 8.205,-5.194 13.254,-6.478 1.736,-0.441 2.886,1.061 2.653,2.653 C 127.368,42.683 113.15,47.471 103.446,48.714 90.719,50.344 79.033,45.225 67.788,39.879 55.403,33.991 43.195,27.693 31.258,20.95 25.336,17.605 19.451,14.194 13.507,10.888 10.315,9.112 7.107,7.363 3.884,5.644 1.501,4.373 0.036,3.963 -0.786,1.384 -0.987,0.751 -0.542,0.227 0,0" /></g><g
           transform="translate(955.5952,1278.9165)"
           id="g428"><path
             id="path430"
             style="fill:#1e120d;fill-opacity:1;fill-rule:nonzero;stroke:none"
             d="m 0,0 c -7.177,-0.838 -14.903,-5.619 -21.452,-8.567 -6.808,-3.066 -13.589,-6.197 -20.3,-9.47 -12.66,-6.174 -25.215,-12.697 -37.141,-20.208 -23.07,-14.528 -45.123,-30.912 -64.971,-49.626 -5.948,-5.607 -11.734,-11.383 -17.369,-17.303 -2.866,-3.011 -5.371,-6.127 -7.742,-9.543 -1.08,-1.556 -2.271,-3.074 -3.21,-4.723 -1.239,-2.179 -1.715,-4.699 -2.797,-6.992 -1.185,-2.511 1.395,-5.959 4.143,-4.143 2.939,1.943 5.976,3.162 8.697,5.449 2.725,2.29 5.57,4.52 8.07,7.056 5.047,5.118 9.896,10.416 15.031,15.452 9.64,9.452 19.763,18.423 30.066,27.144 20.549,17.392 43.504,32.027 66.29,46.279 6.698,4.19 13.459,8.283 20.268,12.291 3.857,2.271 7.729,4.515 11.624,6.72 3.975,2.25 8.726,4.12 11.946,7.401 C 2.053,-1.866 1.472,0.172 0,0" /></g></g></g></g></svg>